solid zone0
 facet normal -0.158291 0.987392 0
  outer loop
   vertex 0.072283 0.0312713 1
   vertex 0.0816603 0.0327746 1
   vertex 0.0816603 0.0327746 -1
  endloop
 endfacet
 facet normal -0.158291 0.987392 0
  outer loop
   vertex 0.072283 0.0312713 1
   vertex 0.0816603 0.0327746 -1
   vertex 0.072283 0.0312713 -1
  endloop
 endfacet
 facet normal -0.169482 0.985533 0
  outer loop
   vertex 0.0646956 0.0299665 1
   vertex 0.072283 0.0312713 1
   vertex 0.072283 0.0312713 -1
  endloop
 endfacet
 facet normal -0.169482 0.985533 0
  outer loop
   vertex 0.0646956 0.0299665 1
   vertex 0.072283 0.0312713 -1
   vertex 0.0646956 0.0299665 -1
  endloop
 endfacet
 facet normal -0.0225159 0.999746 0
  outer loop
   vertex 0.319754 0.0490728 1
   vertex 0.32629 0.04922 1
   vertex 0.32629 0.04922 -1
  endloop
 endfacet
 facet normal -0.178894 0.983868 0
  outer loop
   vertex 0.0586822 0.0288731 1
   vertex 0.0646956 0.0299665 -1
   vertex 0.0586822 0.0288731 -1
  endloop
 endfacet
 facet normal -0.178894 0.983868 0
  outer loop
   vertex 0.0586822 0.0288731 1
   vertex 0.0646956 0.0299665 1
   vertex 0.0646956 0.0299665 -1
  endloop
 endfacet
 facet normal -0.0258979 0.999665 0
  outer loop
   vertex 0.30189 0.04861 1
   vertex 0.319754 0.0490728 1
   vertex 0.30189 0.04861 -1
  endloop
 endfacet
 facet normal -0.0306861 0.999529 0
  outer loop
   vertex 0.285685 0.0481125 1
   vertex 0.30189 0.04861 -1
   vertex 0.285685 0.0481125 -1
  endloop
 endfacet
 facet normal -0.191369 0.981518 0
  outer loop
   vertex 0.0496676 0.0271155 1
   vertex 0.0586822 0.0288731 -1
   vertex 0.0496676 0.0271155 -1
  endloop
 endfacet
 facet normal -0.191369 0.981518 0
  outer loop
   vertex 0.0496676 0.0271155 1
   vertex 0.0586822 0.0288731 1
   vertex 0.0586822 0.0288731 -1
  endloop
 endfacet
 facet normal -0.205726 0.97861 0
  outer loop
   vertex 0.04517 0.02617 1
   vertex 0.0496676 0.0271155 1
   vertex 0.0496676 0.0271155 -1
  endloop
 endfacet
 facet normal -0.205726 0.97861 0
  outer loop
   vertex 0.04517 0.02617 1
   vertex 0.0496676 0.0271155 -1
   vertex 0.04517 0.02617 -1
  endloop
 endfacet
 facet normal -0.0306861 0.999529 0
  outer loop
   vertex 0.285685 0.0481125 1
   vertex 0.30189 0.04861 1
   vertex 0.30189 0.04861 -1
  endloop
 endfacet
 facet normal -0.0343679 0.999409 0
  outer loop
   vertex 0.27747 0.04783 1
   vertex 0.285685 0.0481125 -1
   vertex 0.27747 0.04783 -1
  endloop
 endfacet
 facet normal -0.220991 0.975276 0
  outer loop
   vertex 0.0391204 0.0247992 1
   vertex 0.04517 0.02617 1
   vertex 0.04517 0.02617 -1
  endloop
 endfacet
 facet normal -0.220991 0.975276 0
  outer loop
   vertex 0.0391204 0.0247992 1
   vertex 0.04517 0.02617 -1
   vertex 0.0391204 0.0247992 -1
  endloop
 endfacet
 facet normal -0.236957 0.97152 0
  outer loop
   vertex 0.036373 0.0241291 1
   vertex 0.0391204 0.0247992 1
   vertex 0.0391204 0.0247992 -1
  endloop
 endfacet
 facet normal -0.0343679 0.999409 0
  outer loop
   vertex 0.27747 0.04783 1
   vertex 0.285685 0.0481125 1
   vertex 0.285685 0.0481125 -1
  endloop
 endfacet
 facet normal -0.0396031 0.999215 0
  outer loop
   vertex 0.253256 0.0468703 1
   vertex 0.27747 0.04783 -1
   vertex 0.253256 0.0468703 -1
  endloop
 endfacet
 facet normal -0.236957 0.97152 0
  outer loop
   vertex 0.036373 0.0241291 1
   vertex 0.0391204 0.0247992 -1
   vertex 0.036373 0.0241291 -1
  endloop
 endfacet
 facet normal -0.25597 0.966685 0
  outer loop
   vertex 0.0310979 0.0227323 1
   vertex 0.036373 0.0241291 1
   vertex 0.036373 0.0241291 -1
  endloop
 endfacet
 facet normal -0.25597 0.966685 0
  outer loop
   vertex 0.0310979 0.0227323 1
   vertex 0.036373 0.0241291 -1
   vertex 0.0310979 0.0227323 -1
  endloop
 endfacet
 facet normal -0.0396031 0.999215 0
  outer loop
   vertex 0.253256 0.0468703 1
   vertex 0.27747 0.04783 1
   vertex 0.27747 0.04783 -1
  endloop
 endfacet
 facet normal -0.0436035 0.999049 0
  outer loop
   vertex 0.25302 0.04686 1
   vertex 0.253256 0.0468703 1
   vertex 0.253256 0.0468703 -1
  endloop
 endfacet
 facet normal -0.0436035 0.999049 0
  outer loop
   vertex 0.25302 0.04686 1
   vertex 0.253256 0.0468703 -1
   vertex 0.25302 0.04686 -1
  endloop
 endfacet
 facet normal -0.278953 0.960305 0
  outer loop
   vertex 0.0285129 0.0219814 1
   vertex 0.0310979 0.0227323 1
   vertex 0.0310979 0.0227323 -1
  endloop
 endfacet
 facet normal -0.278953 0.960305 0
  outer loop
   vertex 0.0285129 0.0219814 1
   vertex 0.0310979 0.0227323 -1
   vertex 0.0285129 0.0219814 -1
  endloop
 endfacet
 facet normal 0.0243436 0.999704 0
  outer loop
   vertex 0.47288 0.04923 1
   vertex 0.495758 0.0486729 1
   vertex 0.495758 0.0486729 -1
  endloop
 endfacet
 facet normal 0.0243436 0.999704 0
  outer loop
   vertex 0.47288 0.04923 1
   vertex 0.495758 0.0486729 -1
   vertex 0.47288 0.04923 -1
  endloop
 endfacet
 facet normal -0.302206 0.953243 0
  outer loop
   vertex 0.0248429 0.0208179 1
   vertex 0.0285129 0.0219814 -1
   vertex 0.0248429 0.0208179 -1
  endloop
 endfacet
 facet normal -0.0473905 0.998876 0
  outer loop
   vertex 0.22857 0.0457 1
   vertex 0.25302 0.04686 1
   vertex 0.25302 0.04686 -1
  endloop
 endfacet
 facet normal -0.0473905 0.998876 0
  outer loop
   vertex 0.22857 0.0457 1
   vertex 0.25302 0.04686 -1
   vertex 0.22857 0.0457 -1
  endloop
 endfacet
 facet normal -0.302206 0.953243 0
  outer loop
   vertex 0.0248429 0.0208179 1
   vertex 0.0285129 0.0219814 1
   vertex 0.0285129 0.0219814 -1
  endloop
 endfacet
 facet normal -0.322751 0.946484 0
  outer loop
   vertex 0.0237602 0.0204487 1
   vertex 0.0248429 0.0208179 1
   vertex 0.0248429 0.0208179 -1
  endloop
 endfacet
 facet normal -0.322751 0.946484 0
  outer loop
   vertex 0.0237602 0.0204487 1
   vertex 0.0248429 0.0208179 -1
   vertex 0.0237602 0.0204487 -1
  endloop
 endfacet
 facet normal -0.352456 0.935828 0
  outer loop
   vertex 0.0237602 0.0204487 1
   vertex 0.0237602 0.0204487 -1
   vertex 0.0192528 0.0187511 -1
  endloop
 endfacet
 facet normal 0.0191104 0.999817 0
  outer loop
   vertex 0.458168 0.0495112 1
   vertex 0.47288 0.04923 -1
   vertex 0.458168 0.0495112 -1
  endloop
 endfacet
 facet normal -0.352456 0.935828 0
  outer loop
   vertex 0.0192528 0.0187511 1
   vertex 0.0237602 0.0204487 1
   vertex 0.0192528 0.0187511 -1
  endloop
 endfacet
 facet normal -0.0527436 0.998608 0
  outer loop
   vertex 0.217833 0.0451329 1
   vertex 0.22857 0.0457 1
   vertex 0.22857 0.0457 -1
  endloop
 endfacet
 facet normal -0.0527436 0.998608 0
  outer loop
   vertex 0.217833 0.0451329 1
   vertex 0.22857 0.0457 -1
   vertex 0.217833 0.0451329 -1
  endloop
 endfacet
 facet normal -0.0564786 0.998404 0
  outer loop
   vertex 0.217833 0.0451329 1
   vertex 0.217833 0.0451329 -1
   vertex 0.20417 0.04436 -1
  endloop
 endfacet
 facet normal -0.380504 0.924779 0
  outer loop
   vertex 0.01908 0.01868 1
   vertex 0.0192528 0.0187511 -1
   vertex 0.01908 0.01868 -1
  endloop
 endfacet
 facet normal -0.380504 0.924779 0
  outer loop
   vertex 0.01908 0.01868 1
   vertex 0.0192528 0.0187511 1
   vertex 0.0192528 0.0187511 -1
  endloop
 endfacet
 facet normal -0.413583 0.910467 0
  outer loop
   vertex 0.0147201 0.0166995 1
   vertex 0.01908 0.01868 -1
   vertex 0.0147201 0.0166995 -1
  endloop
 endfacet
 facet normal 0.0191104 0.999817 0
  outer loop
   vertex 0.458168 0.0495112 1
   vertex 0.47288 0.04923 1
   vertex 0.47288 0.04923 -1
  endloop
 endfacet
 facet normal 0.0152942 0.999883 0
  outer loop
   vertex 0.44844 0.04966 1
   vertex 0.458168 0.0495112 -1
   vertex 0.44844 0.04966 -1
  endloop
 endfacet
 facet normal -0.413583 0.910467 0
  outer loop
   vertex 0.0147201 0.0166995 1
   vertex 0.01908 0.01868 1
   vertex 0.01908 0.01868 -1
  endloop
 endfacet
 facet normal -0.0564786 0.998404 0
  outer loop
   vertex 0.20417 0.04436 1
   vertex 0.217833 0.0451329 1
   vertex 0.20417 0.04436 -1
  endloop
 endfacet
 facet normal -0.449725 0.893167 0
  outer loop
   vertex 0.0145779 0.0166279 1
   vertex 0.0147201 0.0166995 -1
   vertex 0.0145779 0.0166279 -1
  endloop
 endfacet
 facet normal -0.485159 0.874426 0
  outer loop
   vertex 0.0145779 0.0166279 1
   vertex 0.0145779 0.0166279 -1
   vertex 0.0110671 0.01468 -1
  endloop
 endfacet
 facet normal -0.449725 0.893167 0
  outer loop
   vertex 0.0145779 0.0166279 1
   vertex 0.0147201 0.0166995 1
   vertex 0.0147201 0.0166995 -1
  endloop
 endfacet
 facet normal -0.485159 0.874426 0
  outer loop
   vertex 0.0110671 0.01468 1
   vertex 0.0145779 0.0166279 1
   vertex 0.0110671 0.01468 -1
  endloop
 endfacet
 facet normal -0.0618965 0.998083 0
  outer loop
   vertex 0.185265 0.0431876 1
   vertex 0.20417 0.04436 -1
   vertex 0.185265 0.0431876 -1
  endloop
 endfacet
 facet normal 0.0152942 0.999883 0
  outer loop
   vertex 0.44844 0.04966 1
   vertex 0.458168 0.0495112 1
   vertex 0.458168 0.0495112 -1
  endloop
 endfacet
 facet normal 0.0102698 0.999947 0
  outer loop
   vertex 0.424332 0.0499076 1
   vertex 0.44844 0.04966 -1
   vertex 0.424332 0.0499076 -1
  endloop
 endfacet
 facet normal -0.522786 0.852464 0
  outer loop
   vertex 0.0109691 0.0146199 1
   vertex 0.0110671 0.01468 -1
   vertex 0.0109691 0.0146199 -1
  endloop
 endfacet
 facet normal -0.522786 0.852464 0
  outer loop
   vertex 0.0109691 0.0146199 1
   vertex 0.0110671 0.01468 1
   vertex 0.0110671 0.01468 -1
  endloop
 endfacet
 facet normal -0.0618965 0.998083 0
  outer loop
   vertex 0.185265 0.0431876 1
   vertex 0.20417 0.04436 1
   vertex 0.20417 0.04436 -1
  endloop
 endfacet
 facet normal -0.562267 0.826956 0
  outer loop
   vertex 0.0079545 0.0125702 1
   vertex 0.0109691 0.0146199 1
   vertex 0.0109691 0.0146199 -1
  endloop
 endfacet
 facet normal -0.562267 0.826956 0
  outer loop
   vertex 0.0079545 0.0125702 1
   vertex 0.0109691 0.0146199 -1
   vertex 0.0079545 0.0125702 -1
  endloop
 endfacet
 facet normal -0.0665063 0.997786 0
  outer loop
   vertex 0.1799 0.04283 1
   vertex 0.185265 0.0431876 1
   vertex 0.185265 0.0431876 -1
  endloop
 endfacet
 facet normal -0.0665063 0.997786 0
  outer loop
   vertex 0.1799 0.04283 1
   vertex 0.185265 0.0431876 -1
   vertex 0.1799 0.04283 -1
  endloop
 endfacet
 facet normal -0.60398 0.796999 0
  outer loop
   vertex 0.00787427 0.0125094 1
   vertex 0.0079545 0.0125702 -1
   vertex 0.00787427 0.0125094 -1
  endloop
 endfacet
 facet normal -0.0727542 0.99735 0
  outer loop
   vertex 0.1799 0.04283 1
   vertex 0.1799 0.04283 -1
   vertex 0.159828 0.0413658 -1
  endloop
 endfacet
 facet normal -0.60398 0.796999 0
  outer loop
   vertex 0.00787427 0.0125094 1
   vertex 0.0079545 0.0125702 1
   vertex 0.0079545 0.0125702 -1
  endloop
 endfacet
 facet normal -0.635842 0.771819 0
  outer loop
   vertex 0.00596415 0.0109358 1
   vertex 0.00787427 0.0125094 1
   vertex 0.00787427 0.0125094 -1
  endloop
 endfacet
 facet normal 0.0102698 0.999947 0
  outer loop
   vertex 0.424332 0.0499076 1
   vertex 0.44844 0.04966 1
   vertex 0.44844 0.04966 -1
  endloop
 endfacet
 facet normal -0.635842 0.771819 0
  outer loop
   vertex 0.00596415 0.0109358 1
   vertex 0.00787427 0.0125094 -1
   vertex 0.00596415 0.0109358 -1
  endloop
 endfacet
 facet normal -0.678602 0.734506 0
  outer loop
   vertex 0.00596415 0.0109358 1
   vertex 0.00596415 0.0109358 -1
   vertex 0.00536646 0.0103836 -1
  endloop
 endfacet
 facet normal 0.00702597 0.999975 0
  outer loop
   vertex 0.42399 0.04991 1
   vertex 0.424332 0.0499076 -1
   vertex 0.42399 0.04991 -1
  endloop
 endfacet
 facet normal -0.678602 0.734506 0
  outer loop
   vertex 0.00536646 0.0103836 1
   vertex 0.00596415 0.0109358 1
   vertex 0.00536646 0.0103836 -1
  endloop
 endfacet
 facet normal -0.714802 0.699327 0
  outer loop
   vertex 0.00536646 0.0103836 1
   vertex 0.00536646 0.0103836 -1
   vertex 0.00414 0.00913 -1
  endloop
 endfacet
 facet normal -0.0727542 0.99735 0
  outer loop
   vertex 0.159828 0.0413658 1
   vertex 0.1799 0.04283 1
   vertex 0.159828 0.0413658 -1
  endloop
 endfacet
 facet normal -0.0797352 0.996816 0
  outer loop
   vertex 0.159828 0.0413658 1
   vertex 0.159828 0.0413658 -1
   vertex 0.15588 0.04105 -1
  endloop
 endfacet
 facet normal -0.714802 0.699327 0
  outer loop
   vertex 0.00414 0.00913 1
   vertex 0.00536646 0.0103836 1
   vertex 0.00414 0.00913 -1
  endloop
 endfacet
 facet normal -0.757432 0.652914 0
  outer loop
   vertex 0.00339037 0.00826037 1
   vertex 0.00414 0.00913 -1
   vertex 0.00339037 0.00826037 -1
  endloop
 endfacet
 facet normal -0.757432 0.652914 0
  outer loop
   vertex 0.00339037 0.00826037 1
   vertex 0.00414 0.00913 1
   vertex 0.00414 0.00913 -1
  endloop
 endfacet
 facet normal -0.78341 0.621505 0
  outer loop
   vertex 0.0030407 0.00781961 1
   vertex 0.00339037 0.00826037 1
   vertex 0.00339037 0.00826037 -1
  endloop
 endfacet
 facet normal 0.00702597 0.999975 0
  outer loop
   vertex 0.42399 0.04991 1
   vertex 0.424332 0.0499076 1
   vertex 0.424332 0.0499076 -1
  endloop
 endfacet
 facet normal -0.78341 0.621505 0
  outer loop
   vertex 0.0030407 0.00781961 1
   vertex 0.00339037 0.00826037 -1
   vertex 0.0030407 0.00781961 -1
  endloop
 endfacet
 facet normal -0.818964 0.573844 0
  outer loop
   vertex 0.0030407 0.00781961 1
   vertex 0.0030407 0.00781961 -1
   vertex 0.00206 0.00642 -1
  endloop
 endfacet
 facet normal 0.00368093 0.999993 0
  outer loop
   vertex 0.39954 0.05 1
   vertex 0.42399 0.04991 -1
   vertex 0.39954 0.05 -1
  endloop
 endfacet
 facet normal -0.0797352 0.996816 0
  outer loop
   vertex 0.15588 0.04105 1
   vertex 0.159828 0.0413658 1
   vertex 0.15588 0.04105 -1
  endloop
 endfacet
 facet normal -0.818964 0.573844 0
  outer loop
   vertex 0.00206 0.00642 1
   vertex 0.0030407 0.00781961 1
   vertex 0.00206 0.00642 -1
  endloop
 endfacet
 facet normal -0.850311 0.526281 0
  outer loop
   vertex 0.00189448 0.00615257 1
   vertex 0.00206 0.00642 -1
   vertex 0.00189448 0.00615257 -1
  endloop
 endfacet
 facet normal -0.850311 0.526281 0
  outer loop
   vertex 0.00189448 0.00615257 1
   vertex 0.00206 0.00642 1
   vertex 0.00206 0.00642 -1
  endloop
 endfacet
 facet normal -0.873165 0.487425 0
  outer loop
   vertex 0.00133638 0.0051528 1
   vertex 0.00189448 0.00615257 -1
   vertex 0.00133638 0.0051528 -1
  endloop
 endfacet
 facet normal -0.873165 0.487425 0
  outer loop
   vertex 0.00133638 0.0051528 1
   vertex 0.00189448 0.00615257 1
   vertex 0.00189448 0.00615257 -1
  endloop
 endfacet
 facet normal -0.908474 0.417941 0
  outer loop
   vertex 0.00084505 0.0040848 1
   vertex 0.00133638 0.0051528 1
   vertex 0.00133638 0.0051528 -1
  endloop
 endfacet
 facet normal -0.0871101 0.996199 0
  outer loop
   vertex 0.137158 0.0394129 1
   vertex 0.15588 0.04105 -1
   vertex 0.137158 0.0394129 -1
  endloop
 endfacet
 facet normal -0.908474 0.417941 0
  outer loop
   vertex 0.00084505 0.0040848 1
   vertex 0.00133638 0.0051528 -1
   vertex 0.00084505 0.0040848 -1
  endloop
 endfacet
 facet normal -0.929526 0.368757 0
  outer loop
   vertex 0.00074 0.00382 1
   vertex 0.00084505 0.0040848 -1
   vertex 0.00074 0.00382 -1
  endloop
 endfacet
 facet normal 0.00368093 0.999993 0
  outer loop
   vertex 0.39954 0.05 1
   vertex 0.42399 0.04991 1
   vertex 0.42399 0.04991 -1
  endloop
 endfacet
 facet normal -0.00121509 0.999999 0
  outer loop
   vertex 0.388923 0.0499871 1
   vertex 0.39954 0.05 -1
   vertex 0.388923 0.0499871 -1
  endloop
 endfacet
 facet normal -0.929526 0.368757 0
  outer loop
   vertex 0.00074 0.00382 1
   vertex 0.00084505 0.0040848 1
   vertex 0.00084505 0.0040848 -1
  endloop
 endfacet
 facet normal -0.951537 0.307535 0
  outer loop
   vertex 0.000334244 0.00256456 1
   vertex 0.00074 0.00382 -1
   vertex 0.000334244 0.00256456 -1
  endloop
 endfacet
 facet normal -0.951537 0.307535 0
  outer loop
   vertex 0.000334244 0.00256456 1
   vertex 0.00074 0.00382 1
   vertex 0.00074 0.00382 -1
  endloop
 endfacet
 facet normal -0.972632 0.232353 0
  outer loop
   vertex 0.000225895 0.00211101 1
   vertex 0.000334244 0.00256456 -1
   vertex 0.000225895 0.00211101 -1
  endloop
 endfacet
 facet normal -0.985284 0.170923 0
  outer loop
   vertex 0.000225895 0.00211101 1
   vertex 0.000225895 0.00211101 -1
   vertex 8e-05 0.00127 -1
  endloop
 endfacet
 facet normal -0.0871101 0.996199 0
  outer loop
   vertex 0.137158 0.0394129 1
   vertex 0.15588 0.04105 1
   vertex 0.15588 0.04105 -1
  endloop
 endfacet
 facet normal -0.972632 0.232353 0
  outer loop
   vertex 0.000225895 0.00211101 1
   vertex 0.000334244 0.00256456 1
   vertex 0.000334244 0.00256456 -1
  endloop
 endfacet
 facet normal -0.985284 0.170923 0
  outer loop
   vertex 8e-05 0.00127 1
   vertex 0.000225895 0.00211101 1
   vertex 8e-05 0.00127 -1
  endloop
 endfacet
 facet normal -0.992896 0.118989 0
  outer loop
   vertex 5.48468e-05 0.00106011 1
   vertex 8e-05 0.00127 -1
   vertex 5.48468e-05 0.00106011 -1
  endloop
 endfacet
 facet normal -0.0949501 0.995482 0
  outer loop
   vertex 0.1322 0.03894 1
   vertex 0.137158 0.0394129 1
   vertex 0.137158 0.0394129 -1
  endloop
 endfacet
 facet normal -0.0949501 0.995482 0
  outer loop
   vertex 0.1322 0.03894 1
   vertex 0.137158 0.0394129 -1
   vertex 0.1322 0.03894 -1
  endloop
 endfacet
 facet normal -0.992896 0.118989 0
  outer loop
   vertex 5.48468e-05 0.00106011 1
   vertex 8e-05 0.00127 1
   vertex 8e-05 0.00127 -1
  endloop
 endfacet
 facet normal -0.998524 0.0543125 0
  outer loop
   vertex -3.00011e-06 -3.39256e-06 1
   vertex 5.48468e-05 0.00106011 -1
   vertex -3.00011e-06 -3.39256e-06 -1
  endloop
 endfacet
 facet normal -0.998524 0.0543125 0
  outer loop
   vertex -3.00011e-06 -3.39256e-06 1
   vertex 5.48468e-05 0.00106011 1
   vertex 5.48468e-05 0.00106011 -1
  endloop
 endfacet
 facet normal -0.00121509 0.999999 0
  outer loop
   vertex 0.388923 0.0499871 1
   vertex 0.39954 0.05 1
   vertex 0.39954 0.05 -1
  endloop
 endfacet
 facet normal -0.00485768 0.999988 0
  outer loop
   vertex 0.37511 0.04992 1
   vertex 0.388923 0.0499871 -1
   vertex 0.37511 0.04992 -1
  endloop
 endfacet
 facet normal -0.103166 0.994664 0
  outer loop
   vertex 0.115234 0.0371803 1
   vertex 0.1322 0.03894 1
   vertex 0.1322 0.03894 -1
  endloop
 endfacet
 facet normal -0.103166 0.994664 0
  outer loop
   vertex 0.115234 0.0371803 1
   vertex 0.1322 0.03894 -1
   vertex 0.115234 0.0371803 -1
  endloop
 endfacet
 facet normal -0.11228 0.993677 0
  outer loop
   vertex 0.115234 0.0371803 1
   vertex 0.115234 0.0371803 -1
   vertex 0.111617 0.0367716 -1
  endloop
 endfacet
 facet normal -0.11228 0.993677 0
  outer loop
   vertex 0.111617 0.0367716 1
   vertex 0.115234 0.0371803 1
   vertex 0.111617 0.0367716 -1
  endloop
 endfacet
 facet normal -0.00485768 0.999988 0
  outer loop
   vertex 0.37511 0.04992 1
   vertex 0.388923 0.0499871 1
   vertex 0.388923 0.0499871 -1
  endloop
 endfacet
 facet normal -0.00984883 0.999951 0
  outer loop
   vertex 0.355941 0.0497312 1
   vertex 0.37511 0.04992 -1
   vertex 0.355941 0.0497312 -1
  endloop
 endfacet
 facet normal -0.12132 0.992613 0
  outer loop
   vertex 0.0987708 0.0352015 1
   vertex 0.111617 0.0367716 -1
   vertex 0.0987708 0.0352015 -1
  endloop
 endfacet
 facet normal -0.00984883 0.999951 0
  outer loop
   vertex 0.355941 0.0497312 1
   vertex 0.37511 0.04992 1
   vertex 0.37511 0.04992 -1
  endloop
 endfacet
 facet normal -0.0135835 0.999908 0
  outer loop
   vertex 0.3507 0.04966 1
   vertex 0.355941 0.0497312 -1
   vertex 0.3507 0.04966 -1
  endloop
 endfacet
 facet normal -0.12132 0.992613 0
  outer loop
   vertex 0.0987708 0.0352015 1
   vertex 0.111617 0.0367716 1
   vertex 0.111617 0.0367716 -1
  endloop
 endfacet
 facet normal -0.130158 0.991493 0
  outer loop
   vertex 0.0970515 0.0349758 1
   vertex 0.0987708 0.0352015 1
   vertex 0.0987708 0.0352015 -1
  endloop
 endfacet
 facet normal -0.130158 0.991493 0
  outer loop
   vertex 0.0970515 0.0349758 1
   vertex 0.0987708 0.0352015 -1
   vertex 0.0970515 0.0349758 -1
  endloop
 endfacet
 facet normal -0.138665 0.990339 0
  outer loop
   vertex 0.08594 0.03342 1
   vertex 0.0970515 0.0349758 1
   vertex 0.0970515 0.0349758 -1
  endloop
 endfacet
 facet normal -0.138665 0.990339 0
  outer loop
   vertex 0.08594 0.03342 1
   vertex 0.0970515 0.0349758 -1
   vertex 0.08594 0.03342 -1
  endloop
 endfacet
 facet normal -0.0135835 0.999908 0
  outer loop
   vertex 0.3507 0.04966 1
   vertex 0.355941 0.0497312 1
   vertex 0.355941 0.0497312 -1
  endloop
 endfacet
 facet normal -0.0180225 0.999838 0
  outer loop
   vertex 0.32629 0.04922 1
   vertex 0.3507 0.04966 -1
   vertex 0.32629 0.04922 -1
  endloop
 endfacet
 facet normal -0.149119 0.988819 0
  outer loop
   vertex 0.0816603 0.0327746 1
   vertex 0.08594 0.03342 1
   vertex 0.08594 0.03342 -1
  endloop
 endfacet
 facet normal -0.149119 0.988819 0
  outer loop
   vertex 0.0816603 0.0327746 1
   vertex 0.08594 0.03342 -1
   vertex 0.0816603 0.0327746 -1
  endloop
 endfacet
 facet normal -0.0180225 0.999838 0
  outer loop
   vertex 0.32629 0.04922 1
   vertex 0.3507 0.04966 1
   vertex 0.3507 0.04966 -1
  endloop
 endfacet
 facet normal -0.0225159 0.999746 0
  outer loop
   vertex 0.319754 0.0490728 1
   vertex 0.32629 0.04922 -1
   vertex 0.319754 0.0490728 -1
  endloop
 endfacet
 facet normal -0.0258979 0.999665 0
  outer loop
   vertex 0.319754 0.0490728 1
   vertex 0.319754 0.0490728 -1
   vertex 0.30189 0.04861 -1
  endloop
 endfacet
 facet normal -0.735646 -0.677367 -0
  outer loop
   vertex 0.00508375 -0.0101259 1
   vertex 0.00356361 -0.00847497 -1
   vertex 0.00508375 -0.0101259 -1
  endloop
 endfacet
 facet normal -0.204403 -0.978887 0
  outer loop
   vertex 0.0542629 -0.0280687 1
   vertex 0.04517 -0.02617 1
   vertex 0.04517 -0.02617 -1
  endloop
 endfacet
 facet normal -0.178496 -0.983941 -0
  outer loop
   vertex 0.0568087 -0.0285642 1
   vertex 0.0568087 -0.0285642 -1
   vertex 0.0677238 -0.0305443 -1
  endloop
 endfacet
 facet normal -0.735646 -0.677367 0
  outer loop
   vertex 0.00508375 -0.0101259 1
   vertex 0.00356361 -0.00847497 1
   vertex 0.00356361 -0.00847497 -1
  endloop
 endfacet
 facet normal -0.191049 -0.981581 -0
  outer loop
   vertex 0.0568087 -0.0285642 1
   vertex 0.0542629 -0.0280687 1
   vertex 0.0568087 -0.0285642 -1
  endloop
 endfacet
 facet normal -0.69922 -0.714906 -0
  outer loop
   vertex 0.00530388 -0.0103412 1
   vertex 0.00508375 -0.0101259 -1
   vertex 0.00530388 -0.0103412 -1
  endloop
 endfacet
 facet normal -0.178496 -0.983941 -0
  outer loop
   vertex 0.0677238 -0.0305443 1
   vertex 0.0568087 -0.0285642 1
   vertex 0.0677238 -0.0305443 -1
  endloop
 endfacet
 facet normal -0.69922 -0.714906 0
  outer loop
   vertex 0.00530388 -0.0103412 1
   vertex 0.00508375 -0.0101259 1
   vertex 0.00508375 -0.0101259 -1
  endloop
 endfacet
 facet normal -0.168532 -0.985696 -0
  outer loop
   vertex 0.0685087 -0.0306785 1
   vertex 0.0677238 -0.0305443 -1
   vertex 0.0685087 -0.0306785 -1
  endloop
 endfacet
 facet normal -0.665163 -0.746699 -0
  outer loop
   vertex 0.00698124 -0.0118354 1
   vertex 0.00530388 -0.0103412 -1
   vertex 0.00698124 -0.0118354 -1
  endloop
 endfacet
 facet normal -0.168532 -0.985696 0
  outer loop
   vertex 0.0685087 -0.0306785 1
   vertex 0.0677238 -0.0305443 1
   vertex 0.0677238 -0.0305443 -1
  endloop
 endfacet
 facet normal -0.16148 -0.986876 -0
  outer loop
   vertex 0.0772163 -0.0321033 1
   vertex 0.0685087 -0.0306785 -1
   vertex 0.0772163 -0.0321033 -1
  endloop
 endfacet
 facet normal -0.665163 -0.746699 0
  outer loop
   vertex 0.00698124 -0.0118354 1
   vertex 0.00530388 -0.0103412 1
   vertex 0.00530388 -0.0103412 -1
  endloop
 endfacet
 facet normal -0.16148 -0.986876 0
  outer loop
   vertex 0.0772163 -0.0321033 1
   vertex 0.0685087 -0.0306785 1
   vertex 0.0685087 -0.0306785 -1
  endloop
 endfacet
 facet normal -0.63178 -0.775148 -0
  outer loop
   vertex 0.00722 -0.01203 1
   vertex 0.00698124 -0.0118354 -1
   vertex 0.00722 -0.01203 -1
  endloop
 endfacet
 facet normal -0.589992 -0.807409 -0
  outer loop
   vertex 0.00722 -0.01203 1
   vertex 0.00722 -0.01203 -1
   vertex 0.00978842 -0.0139068 -1
  endloop
 endfacet
 facet normal -0.150914 -0.988547 -0
  outer loop
   vertex 0.0834326 -0.0330523 1
   vertex 0.0772163 -0.0321033 -1
   vertex 0.0834326 -0.0330523 -1
  endloop
 endfacet
 facet normal -0.150914 -0.988547 0
  outer loop
   vertex 0.0834326 -0.0330523 1
   vertex 0.0772163 -0.0321033 1
   vertex 0.0772163 -0.0321033 -1
  endloop
 endfacet
 facet normal -0.63178 -0.775148 0
  outer loop
   vertex 0.00722 -0.01203 1
   vertex 0.00698124 -0.0118354 1
   vertex 0.00698124 -0.0118354 -1
  endloop
 endfacet
 facet normal -0.145094 -0.989418 -0
  outer loop
   vertex 0.08594 -0.03342 1
   vertex 0.0834326 -0.0330523 -1
   vertex 0.08594 -0.03342 -1
  endloop
 endfacet
 facet normal -0.145094 -0.989418 0
  outer loop
   vertex 0.08594 -0.03342 1
   vertex 0.0834326 -0.0330523 1
   vertex 0.0834326 -0.0330523 -1
  endloop
 endfacet
 facet normal -0.99786 -0.0653892 -0
  outer loop
   vertex -3.00011e-06 -3.39256e-06 1
   vertex -3.00011e-06 -3.39256e-06 -1
   vertex 8e-05 -0.00127 -1
  endloop
 endfacet
 facet normal -0.136582 -0.990629 -0
  outer loop
   vertex 0.097106 -0.0349595 1
   vertex 0.08594 -0.03342 -1
   vertex 0.097106 -0.0349595 -1
  endloop
 endfacet
 facet normal -0.129661 -0.991558 -0
  outer loop
   vertex 0.097106 -0.0349595 1
   vertex 0.097106 -0.0349595 -1
   vertex 0.0974165 -0.0350001 -1
  endloop
 endfacet
 facet normal -0.589992 -0.807409 -0
  outer loop
   vertex 0.00978842 -0.0139068 1
   vertex 0.00722 -0.01203 1
   vertex 0.00978842 -0.0139068 -1
  endloop
 endfacet
 facet normal -0.136582 -0.990629 0
  outer loop
   vertex 0.097106 -0.0349595 1
   vertex 0.08594 -0.03342 1
   vertex 0.08594 -0.03342 -1
  endloop
 endfacet
 facet normal -0.549326 -0.835608 0
  outer loop
   vertex 0.0100747 -0.014095 1
   vertex 0.00978842 -0.0139068 1
   vertex 0.00978842 -0.0139068 -1
  endloop
 endfacet
 facet normal -0.549326 -0.835608 -0
  outer loop
   vertex 0.0100747 -0.014095 1
   vertex 0.00978842 -0.0139068 -1
   vertex 0.0100747 -0.014095 -1
  endloop
 endfacet
 facet normal -0.129661 -0.991558 -0
  outer loop
   vertex 0.0974165 -0.0350001 1
   vertex 0.097106 -0.0349595 1
   vertex 0.0974165 -0.0350001 -1
  endloop
 endfacet
 facet normal -0.123458 -0.99235 -0
  outer loop
   vertex 0.10891 -0.03643 1
   vertex 0.0974165 -0.0350001 -1
   vertex 0.10891 -0.03643 -1
  endloop
 endfacet
 facet normal -0.114354 -0.99344 -0
  outer loop
   vertex 0.10891 -0.03643 1
   vertex 0.10891 -0.03643 -1
   vertex 0.11578 -0.0372208 -1
  endloop
 endfacet
 facet normal -0.50998 -0.860186 -0
  outer loop
   vertex 0.013102 -0.0158898 1
   vertex 0.0100747 -0.014095 -1
   vertex 0.013102 -0.0158898 -1
  endloop
 endfacet
 facet normal -0.123458 -0.99235 0
  outer loop
   vertex 0.10891 -0.03643 1
   vertex 0.0974165 -0.0350001 1
   vertex 0.0974165 -0.0350001 -1
  endloop
 endfacet
 facet normal -0.99786 -0.0653892 -0
  outer loop
   vertex 8e-05 -0.00127 1
   vertex -3.00011e-06 -3.39256e-06 1
   vertex 8e-05 -0.00127 -1
  endloop
 endfacet
 facet normal -0.109057 -0.994036 -0
  outer loop
   vertex 0.11578 -0.0372208 1
   vertex 0.11578 -0.0372208 -1
   vertex 0.120548 -0.0377439 -1
  endloop
 endfacet
 facet normal -0.114354 -0.99344 -0
  outer loop
   vertex 0.11578 -0.0372208 1
   vertex 0.10891 -0.03643 1
   vertex 0.11578 -0.0372208 -1
  endloop
 endfacet
 facet normal -0.50998 -0.860186 0
  outer loop
   vertex 0.013102 -0.0158898 1
   vertex 0.0100747 -0.014095 1
   vertex 0.0100747 -0.014095 -1
  endloop
 endfacet
 facet normal -0.986526 -0.163602 -0
  outer loop
   vertex 0.000194518 -0.00196055 1
   vertex 8e-05 -0.00127 -1
   vertex 0.000194518 -0.00196055 -1
  endloop
 endfacet
 facet normal -0.476088 -0.879398 -0
  outer loop
   vertex 0.013131 -0.0159055 1
   vertex 0.013102 -0.0158898 -1
   vertex 0.013131 -0.0159055 -1
  endloop
 endfacet
 facet normal -0.109057 -0.994036 -0
  outer loop
   vertex 0.120548 -0.0377439 1
   vertex 0.11578 -0.0372208 1
   vertex 0.120548 -0.0377439 -1
  endloop
 endfacet
 facet normal -0.102115 -0.994773 -0
  outer loop
   vertex 0.1322 -0.03894 1
   vertex 0.120548 -0.0377439 -1
   vertex 0.1322 -0.03894 -1
  endloop
 endfacet
 facet normal -0.476088 -0.879398 0
  outer loop
   vertex 0.013131 -0.0159055 1
   vertex 0.013102 -0.0158898 1
   vertex 0.013102 -0.0158898 -1
  endloop
 endfacet
 facet normal -0.447422 -0.894323 -0
  outer loop
   vertex 0.0160537 -0.0173677 1
   vertex 0.013131 -0.0159055 -1
   vertex 0.0160537 -0.0173677 -1
  endloop
 endfacet
 facet normal -0.412754 -0.910842 -0
  outer loop
   vertex 0.0160537 -0.0173677 1
   vertex 0.0160537 -0.0173677 -1
   vertex 0.017088 -0.0178364 -1
  endloop
 endfacet
 facet normal -0.102115 -0.994773 0
  outer loop
   vertex 0.1322 -0.03894 1
   vertex 0.120548 -0.0377439 1
   vertex 0.120548 -0.0377439 -1
  endloop
 endfacet
 facet normal -0.986526 -0.163602 0
  outer loop
   vertex 0.000194518 -0.00196055 1
   vertex 8e-05 -0.00127 1
   vertex 8e-05 -0.00127 -1
  endloop
 endfacet
 facet normal -0.974273 -0.225373 -0
  outer loop
   vertex 0.000334277 -0.00256472 1
   vertex 0.000194518 -0.00196055 -1
   vertex 0.000334277 -0.00256472 -1
  endloop
 endfacet
 facet normal -0.0956614 -0.995414 -0
  outer loop
   vertex 0.136741 -0.0393764 1
   vertex 0.1322 -0.03894 -1
   vertex 0.136741 -0.0393764 -1
  endloop
 endfacet
 facet normal -0.0956614 -0.995414 0
  outer loop
   vertex 0.136741 -0.0393764 1
   vertex 0.1322 -0.03894 1
   vertex 0.1322 -0.03894 -1
  endloop
 endfacet
 facet normal -0.447422 -0.894323 0
  outer loop
   vertex 0.0160537 -0.0173677 1
   vertex 0.013131 -0.0159055 1
   vertex 0.013131 -0.0159055 -1
  endloop
 endfacet
 facet normal -0.0871119 -0.996199 -0
  outer loop
   vertex 0.15588 -0.04105 1
   vertex 0.136741 -0.0393764 -1
   vertex 0.15588 -0.04105 -1
  endloop
 endfacet
 facet normal -0.0871119 -0.996199 0
  outer loop
   vertex 0.15588 -0.04105 1
   vertex 0.136741 -0.0393764 1
   vertex 0.136741 -0.0393764 -1
  endloop
 endfacet
 facet normal -0.974273 -0.225373 0
  outer loop
   vertex 0.000334277 -0.00256472 1
   vertex 0.000194518 -0.00196055 1
   vertex 0.000194518 -0.00196055 -1
  endloop
 endfacet
 facet normal -0.951533 -0.307548 -0
  outer loop
   vertex 0.00074 -0.00382 1
   vertex 0.000334277 -0.00256472 -1
   vertex 0.00074 -0.00382 -1
  endloop
 endfacet
 facet normal -0.0795531 -0.996831 -0
  outer loop
   vertex 0.159693 -0.0413543 1
   vertex 0.15588 -0.04105 -1
   vertex 0.159693 -0.0413543 -1
  endloop
 endfacet
 facet normal -0.0728353 -0.997344 -0
  outer loop
   vertex 0.159693 -0.0413543 1
   vertex 0.159693 -0.0413543 -1
   vertex 0.1799 -0.04283 -1
  endloop
 endfacet
 facet normal -0.0795531 -0.996831 0
  outer loop
   vertex 0.159693 -0.0413543 1
   vertex 0.15588 -0.04105 1
   vertex 0.15588 -0.04105 -1
  endloop
 endfacet
 facet normal -0.412754 -0.910842 -0
  outer loop
   vertex 0.017088 -0.0178364 1
   vertex 0.0160537 -0.0173677 1
   vertex 0.017088 -0.0178364 -1
  endloop
 endfacet
 facet normal -0.389966 -0.920829 0
  outer loop
   vertex 0.01908 -0.01868 1
   vertex 0.017088 -0.0178364 1
   vertex 0.017088 -0.0178364 -1
  endloop
 endfacet
 facet normal -0.389966 -0.920829 -0
  outer loop
   vertex 0.01908 -0.01868 1
   vertex 0.017088 -0.0178364 -1
   vertex 0.01908 -0.01868 -1
  endloop
 endfacet
 facet normal -0.362117 -0.932133 -0
  outer loop
   vertex 0.01908 -0.01868 1
   vertex 0.01908 -0.01868 -1
   vertex 0.0212958 -0.0195408 -1
  endloop
 endfacet
 facet normal -0.0728353 -0.997344 -0
  outer loop
   vertex 0.1799 -0.04283 1
   vertex 0.159693 -0.0413543 1
   vertex 0.1799 -0.04283 -1
  endloop
 endfacet
 facet normal -0.0665483 -0.997783 -0
  outer loop
   vertex 0.1855 -0.0432035 1
   vertex 0.1799 -0.04283 -1
   vertex 0.1855 -0.0432035 -1
  endloop
 endfacet
 facet normal -0.951533 -0.307548 0
  outer loop
   vertex 0.00074 -0.00382 1
   vertex 0.000334277 -0.00256472 1
   vertex 0.000334277 -0.00256472 -1
  endloop
 endfacet
 facet normal -0.933123 -0.359558 -0
  outer loop
   vertex 0.000750504 -0.00384726 1
   vertex 0.00074 -0.00382 -1
   vertex 0.000750504 -0.00384726 -1
  endloop
 endfacet
 facet normal -0.0665483 -0.997783 0
  outer loop
   vertex 0.1855 -0.0432035 1
   vertex 0.1799 -0.04283 1
   vertex 0.1799 -0.04283 -1
  endloop
 endfacet
 facet normal -0.0618258 -0.998087 0
  outer loop
   vertex 0.20417 -0.04436 1
   vertex 0.1855 -0.0432035 1
   vertex 0.1855 -0.0432035 -1
  endloop
 endfacet
 facet normal -0.0618258 -0.998087 -0
  outer loop
   vertex 0.20417 -0.04436 1
   vertex 0.1855 -0.0432035 -1
   vertex 0.20417 -0.04436 -1
  endloop
 endfacet
 facet normal -0.0566647 -0.998393 0
  outer loop
   vertex 0.2165 -0.0450598 1
   vertex 0.20417 -0.04436 1
   vertex 0.20417 -0.04436 -1
  endloop
 endfacet
 facet normal -0.0566647 -0.998393 -0
  outer loop
   vertex 0.2165 -0.0450598 1
   vertex 0.20417 -0.04436 -1
   vertex 0.2165 -0.0450598 -1
  endloop
 endfacet
 facet normal -0.362117 -0.932133 -0
  outer loop
   vertex 0.0212958 -0.0195408 1
   vertex 0.01908 -0.01868 1
   vertex 0.0212958 -0.0195408 -1
  endloop
 endfacet
 facet normal -0.333672 -0.942689 -0
  outer loop
   vertex 0.0242309 -0.0205797 1
   vertex 0.0212958 -0.0195408 -1
   vertex 0.0242309 -0.0205797 -1
  endloop
 endfacet
 facet normal -0.333672 -0.942689 0
  outer loop
   vertex 0.0242309 -0.0205797 1
   vertex 0.0212958 -0.0195408 1
   vertex 0.0212958 -0.0195408 -1
  endloop
 endfacet
 facet normal -0.052966 -0.998596 0
  outer loop
   vertex 0.22857 -0.0457 1
   vertex 0.2165 -0.0450598 1
   vertex 0.2165 -0.0450598 -1
  endloop
 endfacet
 facet normal -0.052966 -0.998596 -0
  outer loop
   vertex 0.22857 -0.0457 1
   vertex 0.2165 -0.0450598 -1
   vertex 0.22857 -0.0457 -1
  endloop
 endfacet
 facet normal -0.933123 -0.359558 0
  outer loop
   vertex 0.000750504 -0.00384726 1
   vertex 0.00074 -0.00382 1
   vertex 0.00074 -0.00382 -1
  endloop
 endfacet
 facet normal -0.912321 -0.409475 -0
  outer loop
   vertex 0.00133626 -0.00515234 1
   vertex 0.000750504 -0.00384726 -1
   vertex 0.00133626 -0.00515234 -1
  endloop
 endfacet
 facet normal -0.0479759 -0.998848 0
  outer loop
   vertex 0.249242 -0.0466929 1
   vertex 0.22857 -0.0457 1
   vertex 0.22857 -0.0457 -1
  endloop
 endfacet
 facet normal -0.0479759 -0.998848 -0
  outer loop
   vertex 0.249242 -0.0466929 1
   vertex 0.22857 -0.0457 -1
   vertex 0.249242 -0.0466929 -1
  endloop
 endfacet
 facet normal -0.307907 -0.951416 -0
  outer loop
   vertex 0.0269482 -0.0214591 1
   vertex 0.0242309 -0.0205797 -1
   vertex 0.0269482 -0.0214591 -1
  endloop
 endfacet
 facet normal -0.307907 -0.951416 0
  outer loop
   vertex 0.0269482 -0.0214591 1
   vertex 0.0242309 -0.0205797 1
   vertex 0.0242309 -0.0205797 -1
  endloop
 endfacet
 facet normal -0.288427 -0.957502 -0
  outer loop
   vertex 0.0269482 -0.0214591 1
   vertex 0.0269482 -0.0214591 -1
   vertex 0.0294712 -0.0222191 -1
  endloop
 endfacet
 facet normal -0.044186 -0.999023 0
  outer loop
   vertex 0.25302 -0.04686 1
   vertex 0.249242 -0.0466929 1
   vertex 0.249242 -0.0466929 -1
  endloop
 endfacet
 facet normal -0.044186 -0.999023 -0
  outer loop
   vertex 0.25302 -0.04686 1
   vertex 0.249242 -0.0466929 -1
   vertex 0.25302 -0.04686 -1
  endloop
 endfacet
 facet normal -0.912321 -0.409475 0
  outer loop
   vertex 0.00133626 -0.00515234 1
   vertex 0.000750504 -0.00384726 1
   vertex 0.000750504 -0.00384726 -1
  endloop
 endfacet
 facet normal -0.0396417 -0.999214 -0
  outer loop
   vertex 0.27747 -0.04783 1
   vertex 0.25302 -0.04686 -1
   vertex 0.27747 -0.04783 -1
  endloop
 endfacet
 facet normal -0.877868 -0.478902 -0
  outer loop
   vertex 0.0017367 -0.00588638 1
   vertex 0.00133626 -0.00515234 -1
   vertex 0.0017367 -0.00588638 -1
  endloop
 endfacet
 facet normal -0.0396417 -0.999214 0
  outer loop
   vertex 0.27747 -0.04783 1
   vertex 0.25302 -0.04686 1
   vertex 0.25302 -0.04686 -1
  endloop
 endfacet
 facet normal -0.035063 -0.999385 0
  outer loop
   vertex 0.281315 -0.0479649 1
   vertex 0.27747 -0.04783 1
   vertex 0.27747 -0.04783 -1
  endloop
 endfacet
 facet normal -0.035063 -0.999385 -0
  outer loop
   vertex 0.281315 -0.0479649 1
   vertex 0.27747 -0.04783 -1
   vertex 0.281315 -0.0479649 -1
  endloop
 endfacet
 facet normal -0.877868 -0.478902 0
  outer loop
   vertex 0.0017367 -0.00588638 1
   vertex 0.00133626 -0.00515234 1
   vertex 0.00133626 -0.00515234 -1
  endloop
 endfacet
 facet normal -0.0313383 -0.999509 -0
  outer loop
   vertex 0.30189 -0.04861 1
   vertex 0.281315 -0.0479649 -1
   vertex 0.30189 -0.04861 -1
  endloop
 endfacet
 facet normal -0.0313383 -0.999509 0
  outer loop
   vertex 0.30189 -0.04861 1
   vertex 0.281315 -0.0479649 1
   vertex 0.281315 -0.0479649 -1
  endloop
 endfacet
 facet normal -0.0262957 -0.999654 0
  outer loop
   vertex 0.316872 -0.0490041 1
   vertex 0.30189 -0.04861 1
   vertex 0.30189 -0.04861 -1
  endloop
 endfacet
 facet normal -0.0262957 -0.999654 -0
  outer loop
   vertex 0.316872 -0.0490041 1
   vertex 0.30189 -0.04861 -1
   vertex 0.316872 -0.0490041 -1
  endloop
 endfacet
 facet normal -0.288427 -0.957502 -0
  outer loop
   vertex 0.0294712 -0.0222191 1
   vertex 0.0269482 -0.0214591 1
   vertex 0.0294712 -0.0222191 -1
  endloop
 endfacet
 facet normal -0.855273 -0.518178 -0
  outer loop
   vertex 0.00206 -0.00642 1
   vertex 0.0017367 -0.00588638 -1
   vertex 0.00206 -0.00642 -1
  endloop
 endfacet
 facet normal -0.267414 -0.963582 -0
  outer loop
   vertex 0.0340233 -0.0234824 1
   vertex 0.0294712 -0.0222191 -1
   vertex 0.0340233 -0.0234824 -1
  endloop
 endfacet
 facet normal -0.267414 -0.963582 0
  outer loop
   vertex 0.0340233 -0.0234824 1
   vertex 0.0294712 -0.0222191 1
   vertex 0.0294712 -0.0222191 -1
  endloop
 endfacet
 facet normal -0.0229181 -0.999737 -0
  outer loop
   vertex 0.32629 -0.04922 1
   vertex 0.316872 -0.0490041 -1
   vertex 0.32629 -0.04922 -1
  endloop
 endfacet
 facet normal -0.0229181 -0.999737 0
  outer loop
   vertex 0.32629 -0.04922 1
   vertex 0.316872 -0.0490041 1
   vertex 0.316872 -0.0490041 -1
  endloop
 endfacet
 facet normal -0.0180225 -0.999838 0
  outer loop
   vertex 0.3507 -0.04966 1
   vertex 0.32629 -0.04922 1
   vertex 0.32629 -0.04922 -1
  endloop
 endfacet
 facet normal -0.0180225 -0.999838 -0
  outer loop
   vertex 0.3507 -0.04966 1
   vertex 0.32629 -0.04922 -1
   vertex 0.3507 -0.04966 -1
  endloop
 endfacet
 facet normal -0.0144295 -0.999896 -0
  outer loop
   vertex 0.3507 -0.04966 1
   vertex 0.3507 -0.04966 -1
   vertex 0.351081 -0.0496655 -1
  endloop
 endfacet
 facet normal -0.0105908 -0.999944 -0
  outer loop
   vertex 0.351081 -0.0496655 1
   vertex 0.351081 -0.0496655 -1
   vertex 0.37511 -0.04992 -1
  endloop
 endfacet
 facet normal -0.248712 -0.968577 -0
  outer loop
   vertex 0.0372934 -0.0243221 1
   vertex 0.0340233 -0.0234824 -1
   vertex 0.0372934 -0.0243221 -1
  endloop
 endfacet
 facet normal -0.0144295 -0.999896 -0
  outer loop
   vertex 0.351081 -0.0496655 1
   vertex 0.3507 -0.04966 1
   vertex 0.351081 -0.0496655 -1
  endloop
 endfacet
 facet normal -0.0105908 -0.999944 -0
  outer loop
   vertex 0.37511 -0.04992 1
   vertex 0.351081 -0.0496655 1
   vertex 0.37511 -0.04992 -1
  endloop
 endfacet
 facet normal -0.00509422 -0.999987 -0
  outer loop
   vertex 0.37511 -0.04992 1
   vertex 0.37511 -0.04992 -1
   vertex 0.387339 -0.0499823 -1
  endloop
 endfacet
 facet normal -0.855273 -0.518178 0
  outer loop
   vertex 0.00206 -0.00642 1
   vertex 0.0017367 -0.00588638 1
   vertex 0.0017367 -0.00588638 -1
  endloop
 endfacet
 facet normal -0.816252 -0.577696 -0
  outer loop
   vertex 0.00317228 -0.00799159 1
   vertex 0.00206 -0.00642 -1
   vertex 0.00317228 -0.00799159 -1
  endloop
 endfacet
 facet normal -0.00509422 -0.999987 -0
  outer loop
   vertex 0.387339 -0.0499823 1
   vertex 0.37511 -0.04992 1
   vertex 0.387339 -0.0499823 -1
  endloop
 endfacet
 facet normal -0.00145091 -0.999999 0
  outer loop
   vertex 0.39954 -0.05 1
   vertex 0.387339 -0.0499823 1
   vertex 0.387339 -0.0499823 -1
  endloop
 endfacet
 facet normal -0.00145091 -0.999999 -0
  outer loop
   vertex 0.39954 -0.05 1
   vertex 0.387339 -0.0499823 -1
   vertex 0.39954 -0.05 -1
  endloop
 endfacet
 facet normal 0.00367349 -0.999993 0
  outer loop
   vertex 0.39954 -0.05 1
   vertex 0.39954 -0.05 -1
   vertex 0.423931 -0.0499104 -1
  endloop
 endfacet
 facet normal -0.248712 -0.968577 0
  outer loop
   vertex 0.0372934 -0.0243221 1
   vertex 0.0340233 -0.0234824 1
   vertex 0.0340233 -0.0234824 -1
  endloop
 endfacet
 facet normal -0.231791 -0.972766 -0
  outer loop
   vertex 0.043053 -0.0256945 1
   vertex 0.0372934 -0.0243221 -1
   vertex 0.043053 -0.0256945 -1
  endloop
 endfacet
 facet normal -0.231791 -0.972766 0
  outer loop
   vertex 0.043053 -0.0256945 1
   vertex 0.0372934 -0.0243221 1
   vertex 0.0372934 -0.0243221 -1
  endloop
 endfacet
 facet normal 0.00367349 -0.999993 0
  outer loop
   vertex 0.423931 -0.0499104 1
   vertex 0.39954 -0.05 1
   vertex 0.423931 -0.0499104 -1
  endloop
 endfacet
 facet normal -0.816252 -0.577696 0
  outer loop
   vertex 0.00317228 -0.00799159 1
   vertex 0.00206 -0.00642 1
   vertex 0.00206 -0.00642 -1
  endloop
 endfacet
 facet normal 0.0067549 -0.999977 0
  outer loop
   vertex 0.42399 -0.04991 1
   vertex 0.423931 -0.0499104 1
   vertex 0.423931 -0.0499104 -1
  endloop
 endfacet
 facet normal 0.0067549 -0.999977 0
  outer loop
   vertex 0.42399 -0.04991 1
   vertex 0.423931 -0.0499104 -1
   vertex 0.42399 -0.04991 -1
  endloop
 endfacet
 facet normal 0.0102244 -0.999948 0
  outer loop
   vertex 0.44844 -0.04966 1
   vertex 0.42399 -0.04991 1
   vertex 0.42399 -0.04991 -1
  endloop
 endfacet
 facet normal 0.0102244 -0.999948 0
  outer loop
   vertex 0.44844 -0.04966 1
   vertex 0.42399 -0.04991 -1
   vertex 0.44844 -0.04966 -1
  endloop
 endfacet
 facet normal 0.0154815 -0.99988 0
  outer loop
   vertex 0.459355 -0.049491 1
   vertex 0.44844 -0.04966 1
   vertex 0.44844 -0.04966 -1
  endloop
 endfacet
 facet normal 0.0154815 -0.99988 0
  outer loop
   vertex 0.459355 -0.049491 1
   vertex 0.44844 -0.04966 -1
   vertex 0.459355 -0.049491 -1
  endloop
 endfacet
 facet normal 0.0192941 -0.999814 0
  outer loop
   vertex 0.459355 -0.049491 1
   vertex 0.459355 -0.049491 -1
   vertex 0.47288 -0.04923 -1
  endloop
 endfacet
 facet normal -0.777228 -0.629219 -0
  outer loop
   vertex 0.00356361 -0.00847497 1
   vertex 0.00317228 -0.00799159 -1
   vertex 0.00356361 -0.00847497 -1
  endloop
 endfacet
 facet normal 0.0192941 -0.999814 0
  outer loop
   vertex 0.47288 -0.04923 1
   vertex 0.459355 -0.049491 1
   vertex 0.47288 -0.04923 -1
  endloop
 endfacet
 facet normal 0.021996 -0.999758 0
  outer loop
   vertex 0.477557 -0.0491271 1
   vertex 0.47288 -0.04923 1
   vertex 0.47288 -0.04923 -1
  endloop
 endfacet
 facet normal 0.021996 -0.999758 0
  outer loop
   vertex 0.477557 -0.0491271 1
   vertex 0.47288 -0.04923 -1
   vertex 0.477557 -0.0491271 -1
  endloop
 endfacet
 facet normal 0.0249468 -0.999689 0
  outer loop
   vertex 0.477557 -0.0491271 1
   vertex 0.477557 -0.0491271 -1
   vertex 0.495758 -0.0486729 -1
  endloop
 endfacet
 facet normal -0.21915 -0.975691 -0
  outer loop
   vertex 0.04517 -0.02617 1
   vertex 0.043053 -0.0256945 -1
   vertex 0.04517 -0.02617 -1
  endloop
 endfacet
 facet normal 0.0249468 -0.999689 0
  outer loop
   vertex 0.495758 -0.0486729 1
   vertex 0.477557 -0.0491271 1
   vertex 0.495758 -0.0486729 -1
  endloop
 endfacet
 facet normal -0.21915 -0.975691 0
  outer loop
   vertex 0.04517 -0.02617 1
   vertex 0.043053 -0.0256945 1
   vertex 0.043053 -0.0256945 -1
  endloop
 endfacet
 facet normal -0.204403 -0.978887 -0
  outer loop
   vertex 0.0542629 -0.0280687 1
   vertex 0.04517 -0.02617 -1
   vertex 0.0542629 -0.0280687 -1
  endloop
 endfacet
 facet normal -0.191049 -0.981581 -0
  outer loop
   vertex 0.0542629 -0.0280687 1
   vertex 0.0542629 -0.0280687 -1
   vertex 0.0568087 -0.0285642 -1
  endloop
 endfacet
 facet normal -0.777228 -0.629219 0
  outer loop
   vertex 0.00356361 -0.00847497 1
   vertex 0.00317228 -0.00799159 1
   vertex 0.00317228 -0.00799159 -1
  endloop
 endfacet
 facet normal -1 0 0
  outer loop
   vertex 0.495758 -0.0486729 1
   vertex 0.495758 0.0486729 1
   vertex 0.495758 0.0486729 -1
  endloop
 endfacet
 facet normal -1 0 0
  outer loop
   vertex 0.495758 -0.0486729 1
   vertex 0.495758 0.0486729 -1
   vertex 0.495758 -0.0486729 -1
  endloop
 endfacet
endsolid zone0
