solid zone0
 facet normal -0.0125875 0.999921 0
  outer loop
   vertex 0.60225 0.043961 1
   vertex 0.604093 0.0439842 -1
   vertex 0.60225 0.043961 -1
  endloop
 endfacet
 facet normal 0.118537 0.99295 0
  outer loop
   vertex 0.83891 0.02325 1
   vertex 0.848921 0.0220549 1
   vertex 0.83891 0.02325 -1
  endloop
 endfacet
 facet normal -0.0125875 0.999921 0
  outer loop
   vertex 0.60225 0.043961 1
   vertex 0.604093 0.0439842 1
   vertex 0.604093 0.0439842 -1
  endloop
 endfacet
 facet normal -0.0505955 0.998719 0
  outer loop
   vertex 0.598843 0.0437884 1
   vertex 0.60225 0.043961 -1
   vertex 0.598843 0.0437884 -1
  endloop
 endfacet
 facet normal -0.0505955 0.998719 0
  outer loop
   vertex 0.598843 0.0437884 1
   vertex 0.60225 0.043961 1
   vertex 0.60225 0.043961 -1
  endloop
 endfacet
 facet normal 0.11453 0.99342 0
  outer loop
   vertex 0.81497 0.02601 1
   vertex 0.83891 0.02325 -1
   vertex 0.81497 0.02601 -1
  endloop
 endfacet
 facet normal -0.0868453 0.996222 0
  outer loop
   vertex 0.596917 0.0436205 1
   vertex 0.598843 0.0437884 -1
   vertex 0.596917 0.0436205 -1
  endloop
 endfacet
 facet normal -0.0868453 0.996222 0
  outer loop
   vertex 0.596917 0.0436205 1
   vertex 0.598843 0.0437884 1
   vertex 0.598843 0.0437884 -1
  endloop
 endfacet
 facet normal -0.122268 0.992497 0
  outer loop
   vertex 0.593282 0.0431727 1
   vertex 0.596917 0.0436205 -1
   vertex 0.593282 0.0431727 -1
  endloop
 endfacet
 facet normal 0.11453 0.99342 0
  outer loop
   vertex 0.81497 0.02601 1
   vertex 0.83891 0.02325 1
   vertex 0.83891 0.02325 -1
  endloop
 endfacet
 facet normal 0.111121 0.993807 0
  outer loop
   vertex 0.808799 0.0267 1
   vertex 0.81497 0.02601 1
   vertex 0.81497 0.02601 -1
  endloop
 endfacet
 facet normal 0.111121 0.993807 0
  outer loop
   vertex 0.808799 0.0267 1
   vertex 0.81497 0.02601 -1
   vertex 0.808799 0.0267 -1
  endloop
 endfacet
 facet normal 0.108394 0.994108 0
  outer loop
   vertex 0.808799 0.0267 1
   vertex 0.808799 0.0267 -1
   vertex 0.79064 0.02868 -1
  endloop
 endfacet
 facet normal -0.122268 0.992497 0
  outer loop
   vertex 0.593282 0.0431727 1
   vertex 0.596917 0.0436205 1
   vertex 0.596917 0.0436205 -1
  endloop
 endfacet
 facet normal -0.156408 0.987693 0
  outer loop
   vertex 0.591265 0.0428533 1
   vertex 0.593282 0.0431727 -1
   vertex 0.591265 0.0428533 -1
  endloop
 endfacet
 facet normal -0.189679 0.981846 0
  outer loop
   vertex 0.591265 0.0428533 1
   vertex 0.591265 0.0428533 -1
   vertex 0.587493 0.0421246 -1
  endloop
 endfacet
 facet normal -0.156408 0.987693 0
  outer loop
   vertex 0.591265 0.0428533 1
   vertex 0.593282 0.0431727 1
   vertex 0.593282 0.0431727 -1
  endloop
 endfacet
 facet normal 0.108394 0.994108 0
  outer loop
   vertex 0.79064 0.02868 1
   vertex 0.808799 0.0267 1
   vertex 0.79064 0.02868 -1
  endloop
 endfacet
 facet normal -0.189679 0.981846 0
  outer loop
   vertex 0.587493 0.0421246 1
   vertex 0.591265 0.0428533 1
   vertex 0.587493 0.0421246 -1
  endloop
 endfacet
 facet normal -0.222007 0.975045 0
  outer loop
   vertex 0.58542 0.0416526 1
   vertex 0.587493 0.0421246 -1
   vertex 0.58542 0.0416526 -1
  endloop
 endfacet
 facet normal -0.253453 0.967348 0
  outer loop
   vertex 0.58542 0.0416526 1
   vertex 0.58542 0.0416526 -1
   vertex 0.581577 0.0406457 -1
  endloop
 endfacet
 facet normal 0.103871 0.994591 0
  outer loop
   vertex 0.770848 0.030747 1
   vertex 0.79064 0.02868 1
   vertex 0.79064 0.02868 -1
  endloop
 endfacet
 facet normal 0.103871 0.994591 0
  outer loop
   vertex 0.770848 0.030747 1
   vertex 0.79064 0.02868 -1
   vertex 0.770848 0.030747 -1
  endloop
 endfacet
 facet normal -0.222007 0.975045 0
  outer loop
   vertex 0.58542 0.0416526 1
   vertex 0.587493 0.0421246 1
   vertex 0.587493 0.0421246 -1
  endloop
 endfacet
 facet normal 0.154015 0.988068 0
  outer loop
   vertex 0.99166 0.0023 1
   vertex 1 0.001 1
   vertex 1 0.001 -1
  endloop
 endfacet
 facet normal 0.154015 0.988068 0
  outer loop
   vertex 0.99166 0.0023 1
   vertex 1 0.001 -1
   vertex 0.99166 0.0023 -1
  endloop
 endfacet
 facet normal -0.253453 0.967348 0
  outer loop
   vertex 0.581577 0.0406457 1
   vertex 0.58542 0.0416526 1
   vertex 0.581577 0.0406457 -1
  endloop
 endfacet
 facet normal 0.100786 0.994908 0
  outer loop
   vertex 0.76608 0.03123 1
   vertex 0.770848 0.030747 1
   vertex 0.770848 0.030747 -1
  endloop
 endfacet
 facet normal 0.100786 0.994908 0
  outer loop
   vertex 0.76608 0.03123 1
   vertex 0.770848 0.030747 -1
   vertex 0.76608 0.03123 -1
  endloop
 endfacet
 facet normal -0.284361 0.958717 0
  outer loop
   vertex 0.579485 0.0400252 1
   vertex 0.581577 0.0406457 -1
   vertex 0.579485 0.0400252 -1
  endloop
 endfacet
 facet normal -0.284361 0.958717 0
  outer loop
   vertex 0.579485 0.0400252 1
   vertex 0.581577 0.0406457 1
   vertex 0.581577 0.0406457 -1
  endloop
 endfacet
 facet normal 0.151061 0.988524 0
  outer loop
   vertex 0.97674 0.00458 1
   vertex 0.99166 0.0023 -1
   vertex 0.97674 0.00458 -1
  endloop
 endfacet
 facet normal -0.314479 0.949265 0
  outer loop
   vertex 0.575643 0.0387524 1
   vertex 0.579485 0.0400252 -1
   vertex 0.575643 0.0387524 -1
  endloop
 endfacet
 facet normal 0.0970998 0.995275 0
  outer loop
   vertex 0.74148 0.03363 1
   vertex 0.76608 0.03123 1
   vertex 0.76608 0.03123 -1
  endloop
 endfacet
 facet normal 0.0970998 0.995275 0
  outer loop
   vertex 0.74148 0.03363 1
   vertex 0.76608 0.03123 -1
   vertex 0.74148 0.03363 -1
  endloop
 endfacet
 facet normal -0.314479 0.949265 0
  outer loop
   vertex 0.575643 0.0387524 1
   vertex 0.579485 0.0400252 1
   vertex 0.579485 0.0400252 -1
  endloop
 endfacet
 facet normal -0.344244 0.93888 0
  outer loop
   vertex 0.573571 0.0379927 1
   vertex 0.575643 0.0387524 -1
   vertex 0.573571 0.0379927 -1
  endloop
 endfacet
 facet normal -0.373424 0.927661 0
  outer loop
   vertex 0.573571 0.0379927 1
   vertex 0.573571 0.0379927 -1
   vertex 0.569802 0.0364755 -1
  endloop
 endfacet
 facet normal -0.344244 0.93888 0
  outer loop
   vertex 0.573571 0.0379927 1
   vertex 0.575643 0.0387524 1
   vertex 0.575643 0.0387524 -1
  endloop
 endfacet
 facet normal 0.151061 0.988524 0
  outer loop
   vertex 0.97674 0.00458 1
   vertex 0.99166 0.0023 1
   vertex 0.99166 0.0023 -1
  endloop
 endfacet
 facet normal 0.148327 0.988938 0
  outer loop
   vertex 0.962868 0.00666061 1
   vertex 0.97674 0.00458 -1
   vertex 0.962868 0.00666061 -1
  endloop
 endfacet
 facet normal -0.373424 0.927661 0
  outer loop
   vertex 0.569802 0.0364755 1
   vertex 0.573571 0.0379927 1
   vertex 0.569802 0.0364755 -1
  endloop
 endfacet
 facet normal 0.0928536 0.99568 0
  outer loop
   vertex 0.731411 0.034569 1
   vertex 0.74148 0.03363 1
   vertex 0.74148 0.03363 -1
  endloop
 endfacet
 facet normal 0.0928536 0.99568 0
  outer loop
   vertex 0.731411 0.034569 1
   vertex 0.74148 0.03363 -1
   vertex 0.731411 0.034569 -1
  endloop
 endfacet
 facet normal -0.393922 0.919144 0
  outer loop
   vertex 0.56963 0.0364018 1
   vertex 0.569802 0.0364755 1
   vertex 0.569802 0.0364755 -1
  endloop
 endfacet
 facet normal -0.393922 0.919144 0
  outer loop
   vertex 0.56963 0.0364018 1
   vertex 0.569802 0.0364755 -1
   vertex 0.56963 0.0364018 -1
  endloop
 endfacet
 facet normal -0.413247 0.910619 0
  outer loop
   vertex 0.56963 0.0364018 1
   vertex 0.56963 0.0364018 -1
   vertex 0.565826 0.0346755 -1
  endloop
 endfacet
 facet normal 0.0897277 0.995966 0
  outer loop
   vertex 0.71697 0.03587 1
   vertex 0.731411 0.034569 1
   vertex 0.731411 0.034569 -1
  endloop
 endfacet
 facet normal 0.0897277 0.995966 0
  outer loop
   vertex 0.71697 0.03587 1
   vertex 0.731411 0.034569 -1
   vertex 0.71697 0.03587 -1
  endloop
 endfacet
 facet normal -0.413247 0.910619 0
  outer loop
   vertex 0.565826 0.0346755 1
   vertex 0.56963 0.0364018 1
   vertex 0.565826 0.0346755 -1
  endloop
 endfacet
 facet normal -0.441158 0.89743 0
  outer loop
   vertex 0.565826 0.0346755 1
   vertex 0.565826 0.0346755 -1
   vertex 0.564152 0.0338526 -1
  endloop
 endfacet
 facet normal 0.148327 0.988938 0
  outer loop
   vertex 0.962868 0.00666061 1
   vertex 0.97674 0.00458 1
   vertex 0.97674 0.00458 -1
  endloop
 endfacet
 facet normal 0.14656 0.989202 0
  outer loop
   vertex 0.95781 0.00741 1
   vertex 0.962868 0.00666061 -1
   vertex 0.95781 0.00741 -1
  endloop
 endfacet
 facet normal 0.143508 0.989649 0
  outer loop
   vertex 0.95781 0.00741 1
   vertex 0.95781 0.00741 -1
   vertex 0.93457 0.01078 -1
  endloop
 endfacet
 facet normal -0.467262 0.884119 0
  outer loop
   vertex 0.564152 0.0338526 1
   vertex 0.564152 0.0338526 -1
   vertex 0.560805 0.0320837 -1
  endloop
 endfacet
 facet normal -0.441158 0.89743 0
  outer loop
   vertex 0.564152 0.0338526 1
   vertex 0.565826 0.0346755 1
   vertex 0.564152 0.0338526 -1
  endloop
 endfacet
 facet normal 0.084951 0.996385 0
  outer loop
   vertex 0.695743 0.0376798 1
   vertex 0.71697 0.03587 1
   vertex 0.71697 0.03587 -1
  endloop
 endfacet
 facet normal 0.084951 0.996385 0
  outer loop
   vertex 0.695743 0.0376798 1
   vertex 0.71697 0.03587 -1
   vertex 0.695743 0.0376798 -1
  endloop
 endfacet
 facet normal 0.14656 0.989202 0
  outer loop
   vertex 0.95781 0.00741 1
   vertex 0.962868 0.00666061 1
   vertex 0.962868 0.00666061 -1
  endloop
 endfacet
 facet normal 0.140065 0.990142 0
  outer loop
   vertex 0.93457 0.01078 1
   vertex 0.93457 0.01078 -1
   vertex 0.925694 0.0120356 -1
  endloop
 endfacet
 facet normal -0.467262 0.884119 0
  outer loop
   vertex 0.560805 0.0320837 1
   vertex 0.564152 0.0338526 1
   vertex 0.560805 0.0320837 -1
  endloop
 endfacet
 facet normal -0.493312 0.869853 0
  outer loop
   vertex 0.559223 0.0311865 1
   vertex 0.560805 0.0320837 -1
   vertex 0.559223 0.0311865 -1
  endloop
 endfacet
 facet normal -0.520166 0.854065 0
  outer loop
   vertex 0.559223 0.0311865 1
   vertex 0.559223 0.0311865 -1
   vertex 0.555961 0.0291998 -1
  endloop
 endfacet
 facet normal 0.0817288 0.996655 0
  outer loop
   vertex 0.69257 0.03794 1
   vertex 0.695743 0.0376798 -1
   vertex 0.69257 0.03794 -1
  endloop
 endfacet
 facet normal 0.0817288 0.996655 0
  outer loop
   vertex 0.69257 0.03794 1
   vertex 0.695743 0.0376798 1
   vertex 0.695743 0.0376798 -1
  endloop
 endfacet
 facet normal -0.493312 0.869853 0
  outer loop
   vertex 0.559223 0.0311865 1
   vertex 0.560805 0.0320837 1
   vertex 0.560805 0.0320837 -1
  endloop
 endfacet
 facet normal -0.520166 0.854065 0
  outer loop
   vertex 0.555961 0.0291998 1
   vertex 0.559223 0.0311865 1
   vertex 0.555961 0.0291998 -1
  endloop
 endfacet
 facet normal -0.546253 0.83762 0
  outer loop
   vertex 0.554621 0.0283259 1
   vertex 0.555961 0.0291998 -1
   vertex 0.554621 0.0283259 -1
  endloop
 endfacet
 facet normal 0.143508 0.989649 0
  outer loop
   vertex 0.93457 0.01078 1
   vertex 0.95781 0.00741 1
   vertex 0.93457 0.01078 -1
  endloop
 endfacet
 facet normal 0.0781993 0.996938 0
  outer loop
   vertex 0.66822 0.03985 1
   vertex 0.69257 0.03794 -1
   vertex 0.66822 0.03985 -1
  endloop
 endfacet
 facet normal 0.0781993 0.996938 0
  outer loop
   vertex 0.66822 0.03985 1
   vertex 0.69257 0.03794 1
   vertex 0.69257 0.03794 -1
  endloop
 endfacet
 facet normal 0.0735112 0.997294 0
  outer loop
   vertex 0.66822 0.03985 1
   vertex 0.66822 0.03985 -1
   vertex 0.656645 0.0407032 -1
  endloop
 endfacet
 facet normal -0.546253 0.83762 0
  outer loop
   vertex 0.554621 0.0283259 1
   vertex 0.555961 0.0291998 1
   vertex 0.555961 0.0291998 -1
  endloop
 endfacet
 facet normal -0.572034 0.82023 0
  outer loop
   vertex 0.55162 0.026233 1
   vertex 0.554621 0.0283259 -1
   vertex 0.55162 0.026233 -1
  endloop
 endfacet
 facet normal -0.572034 0.82023 0
  outer loop
   vertex 0.55162 0.026233 1
   vertex 0.554621 0.0283259 1
   vertex 0.554621 0.0283259 -1
  endloop
 endfacet
 facet normal -0.598213 0.801337 0
  outer loop
   vertex 0.550399 0.0253215 1
   vertex 0.55162 0.026233 1
   vertex 0.55162 0.026233 -1
  endloop
 endfacet
 facet normal -0.598213 0.801337 0
  outer loop
   vertex 0.550399 0.0253215 1
   vertex 0.55162 0.026233 -1
   vertex 0.550399 0.0253215 -1
  endloop
 endfacet
 facet normal 0.0700819 0.997541 0
  outer loop
   vertex 0.656645 0.0407032 1
   vertex 0.656645 0.0407032 -1
   vertex 0.64388 0.0416 -1
  endloop
 endfacet
 facet normal 0.0735112 0.997294 0
  outer loop
   vertex 0.656645 0.0407032 1
   vertex 0.66822 0.03985 1
   vertex 0.656645 0.0407032 -1
  endloop
 endfacet
 facet normal -0.624415 0.781093 0
  outer loop
   vertex 0.547693 0.0231583 1
   vertex 0.550399 0.0253215 1
   vertex 0.550399 0.0253215 -1
  endloop
 endfacet
 facet normal -0.624415 0.781093 0
  outer loop
   vertex 0.547693 0.0231583 1
   vertex 0.550399 0.0253215 -1
   vertex 0.547693 0.0231583 -1
  endloop
 endfacet
 facet normal 0.140065 0.990142 0
  outer loop
   vertex 0.925694 0.0120356 1
   vertex 0.93457 0.01078 1
   vertex 0.925694 0.0120356 -1
  endloop
 endfacet
 facet normal 0.13725 0.990536 0
  outer loop
   vertex 0.91029 0.01417 1
   vertex 0.925694 0.0120356 -1
   vertex 0.91029 0.01417 -1
  endloop
 endfacet
 facet normal -0.650291 0.759685 0
  outer loop
   vertex 0.546602 0.0222244 1
   vertex 0.547693 0.0231583 1
   vertex 0.547693 0.0231583 -1
  endloop
 endfacet
 facet normal -0.650291 0.759685 0
  outer loop
   vertex 0.546602 0.0222244 1
   vertex 0.547693 0.0231583 -1
   vertex 0.546602 0.0222244 -1
  endloop
 endfacet
 facet normal -0.676717 0.736243 0
  outer loop
   vertex 0.54421 0.0200258 1
   vertex 0.546602 0.0222244 1
   vertex 0.546602 0.0222244 -1
  endloop
 endfacet
 facet normal -0.676717 0.736243 0
  outer loop
   vertex 0.54421 0.0200258 1
   vertex 0.546602 0.0222244 -1
   vertex 0.54421 0.0200258 -1
  endloop
 endfacet
 facet normal 0.0700819 0.997541 0
  outer loop
   vertex 0.64388 0.0416 1
   vertex 0.656645 0.0407032 1
   vertex 0.64388 0.0416 -1
  endloop
 endfacet
 facet normal -0.702984 0.711206 0
  outer loop
   vertex 0.543257 0.0190838 1
   vertex 0.54421 0.0200258 1
   vertex 0.54421 0.0200258 -1
  endloop
 endfacet
 facet normal -0.702984 0.711206 0
  outer loop
   vertex 0.543257 0.0190838 1
   vertex 0.54421 0.0200258 -1
   vertex 0.543257 0.0190838 -1
  endloop
 endfacet
 facet normal 0.13725 0.990536 0
  outer loop
   vertex 0.91029 0.01417 1
   vertex 0.925694 0.0120356 1
   vertex 0.925694 0.0120356 -1
  endloop
 endfacet
 facet normal 0.132417 0.991194 0
  outer loop
   vertex 0.888092 0.0171355 1
   vertex 0.91029 0.01417 -1
   vertex 0.888092 0.0171355 -1
  endloop
 endfacet
 facet normal -0.729046 0.684464 0
  outer loop
   vertex 0.54119 0.0168822 1
   vertex 0.543257 0.0190838 1
   vertex 0.543257 0.0190838 -1
  endloop
 endfacet
 facet normal -0.729046 0.684464 0
  outer loop
   vertex 0.54119 0.0168822 1
   vertex 0.543257 0.0190838 -1
   vertex 0.54119 0.0168822 -1
  endloop
 endfacet
 facet normal -0.755314 0.655363 0
  outer loop
   vertex 0.54119 0.0168822 1
   vertex 0.54119 0.0168822 -1
   vertex 0.540377 0.0159452 -1
  endloop
 endfacet
 facet normal 0.065156 0.997875 0
  outer loop
   vertex 0.622791 0.042977 1
   vertex 0.64388 0.0416 -1
   vertex 0.622791 0.042977 -1
  endloop
 endfacet
 facet normal -0.755314 0.655363 0
  outer loop
   vertex 0.540377 0.0159452 1
   vertex 0.54119 0.0168822 1
   vertex 0.540377 0.0159452 -1
  endloop
 endfacet
 facet normal -0.78118 0.624306 0
  outer loop
   vertex 0.538638 0.0137692 1
   vertex 0.540377 0.0159452 -1
   vertex 0.538638 0.0137692 -1
  endloop
 endfacet
 facet normal 0.065156 0.997875 0
  outer loop
   vertex 0.622791 0.042977 1
   vertex 0.64388 0.0416 1
   vertex 0.64388 0.0416 -1
  endloop
 endfacet
 facet normal -0.78118 0.624306 0
  outer loop
   vertex 0.538638 0.0137692 1
   vertex 0.540377 0.0159452 1
   vertex 0.540377 0.0159452 -1
  endloop
 endfacet
 facet normal -0.806863 0.590738 0
  outer loop
   vertex 0.537964 0.0128486 1
   vertex 0.538638 0.0137692 1
   vertex 0.538638 0.0137692 -1
  endloop
 endfacet
 facet normal -0.806863 0.590738 0
  outer loop
   vertex 0.537964 0.0128486 1
   vertex 0.538638 0.0137692 -1
   vertex 0.537964 0.0128486 -1
  endloop
 endfacet
 facet normal 0.132417 0.991194 0
  outer loop
   vertex 0.888092 0.0171355 1
   vertex 0.91029 0.01417 1
   vertex 0.91029 0.01417 -1
  endloop
 endfacet
 facet normal 0.129285 0.991608 0
  outer loop
   vertex 0.88614 0.01739 1
   vertex 0.888092 0.0171355 -1
   vertex 0.88614 0.01739 -1
  endloop
 endfacet
 facet normal 0.0617529 0.998091 0
  outer loop
   vertex 0.61951 0.04318 1
   vertex 0.622791 0.042977 -1
   vertex 0.61951 0.04318 -1
  endloop
 endfacet
 facet normal 0.0617529 0.998091 0
  outer loop
   vertex 0.61951 0.04318 1
   vertex 0.622791 0.042977 1
   vertex 0.622791 0.042977 -1
  endloop
 endfacet
 facet normal -0.823679 0.567056 0
  outer loop
   vertex 0.537189 0.0117229 1
   vertex 0.537964 0.0128486 1
   vertex 0.537964 0.0128486 -1
  endloop
 endfacet
 facet normal -0.823679 0.567056 0
  outer loop
   vertex 0.537189 0.0117229 1
   vertex 0.537964 0.0128486 -1
   vertex 0.537189 0.0117229 -1
  endloop
 endfacet
 facet normal -0.848535 0.52914 0
  outer loop
   vertex 0.536007 0.0098274 1
   vertex 0.537189 0.0117229 -1
   vertex 0.536007 0.0098274 -1
  endloop
 endfacet
 facet normal -0.848535 0.52914 0
  outer loop
   vertex 0.536007 0.0098274 1
   vertex 0.537189 0.0117229 1
   vertex 0.537189 0.0117229 -1
  endloop
 endfacet
 facet normal -0.866948 0.498399 0
  outer loop
   vertex 0.535932 0.00969697 1
   vertex 0.536007 0.0098274 -1
   vertex 0.535932 0.00969697 -1
  endloop
 endfacet
 facet normal -0.895187 0.445691 0
  outer loop
   vertex 0.535932 0.00969697 1
   vertex 0.535932 0.00969697 -1
   vertex 0.534866 0.00755581 -1
  endloop
 endfacet
 facet normal -0.866948 0.498399 0
  outer loop
   vertex 0.535932 0.00969697 1
   vertex 0.536007 0.0098274 1
   vertex 0.536007 0.0098274 -1
  endloop
 endfacet
 facet normal -0.895187 0.445691 0
  outer loop
   vertex 0.534866 0.00755581 1
   vertex 0.535932 0.00969697 1
   vertex 0.534866 0.00755581 -1
  endloop
 endfacet
 facet normal 0.0596759 0.998218 0
  outer loop
   vertex 0.610039 0.0437462 1
   vertex 0.61951 0.04318 -1
   vertex 0.610039 0.0437462 -1
  endloop
 endfacet
 facet normal 0.0596759 0.998218 0
  outer loop
   vertex 0.610039 0.0437462 1
   vertex 0.61951 0.04318 1
   vertex 0.61951 0.04318 -1
  endloop
 endfacet
 facet normal -0.921756 0.387771 0
  outer loop
   vertex 0.534815 0.00743467 1
   vertex 0.534866 0.00755581 1
   vertex 0.534866 0.00755581 -1
  endloop
 endfacet
 facet normal -0.921756 0.387771 0
  outer loop
   vertex 0.534815 0.00743467 1
   vertex 0.534866 0.00755581 -1
   vertex 0.534815 0.00743467 -1
  endloop
 endfacet
 facet normal 0.129285 0.991608 0
  outer loop
   vertex 0.88614 0.01739 1
   vertex 0.888092 0.0171355 1
   vertex 0.888092 0.0171355 -1
  endloop
 endfacet
 facet normal 0.126051 0.992024 0
  outer loop
   vertex 0.86253 0.02039 1
   vertex 0.88614 0.01739 -1
   vertex 0.86253 0.02039 -1
  endloop
 endfacet
 facet normal -0.945427 0.325835 0
  outer loop
   vertex 0.534039 0.00518309 1
   vertex 0.534815 0.00743467 -1
   vertex 0.534039 0.00518309 -1
  endloop
 endfacet
 facet normal -0.945427 0.325835 0
  outer loop
   vertex 0.534039 0.00518309 1
   vertex 0.534815 0.00743467 1
   vertex 0.534815 0.00743467 -1
  endloop
 endfacet
 facet normal -0.964678 0.263433 0
  outer loop
   vertex 0.533996 0.0050255 1
   vertex 0.534039 0.00518309 -1
   vertex 0.533996 0.0050255 -1
  endloop
 endfacet
 facet normal -0.964678 0.263433 0
  outer loop
   vertex 0.533996 0.0050255 1
   vertex 0.534039 0.00518309 1
   vertex 0.534039 0.00518309 -1
  endloop
 endfacet
 facet normal -0.980368 0.197176 0
  outer loop
   vertex 0.533509 0.00260426 1
   vertex 0.533996 0.0050255 -1
   vertex 0.533509 0.00260426 -1
  endloop
 endfacet
 facet normal -0.980368 0.197176 0
  outer loop
   vertex 0.533509 0.00260426 1
   vertex 0.533996 0.0050255 1
   vertex 0.533996 0.0050255 -1
  endloop
 endfacet
 facet normal -0.990775 0.135514 0
  outer loop
   vertex 0.533498 0.00252364 1
   vertex 0.533509 0.00260426 -1
   vertex 0.533498 0.00252364 -1
  endloop
 endfacet
 facet normal -0.99787 0.0652368 0
  outer loop
   vertex 0.533498 0.00252364 1
   vertex 0.533498 0.00252364 -1
   vertex 0.533333 -4.84847e-13 -1
  endloop
 endfacet
 facet normal -0.990775 0.135514 0
  outer loop
   vertex 0.533498 0.00252364 1
   vertex 0.533509 0.00260426 1
   vertex 0.533509 0.00260426 -1
  endloop
 endfacet
 facet normal 0.0551398 0.998479 0
  outer loop
   vertex 0.607263 0.0438995 1
   vertex 0.610039 0.0437462 -1
   vertex 0.607263 0.0438995 -1
  endloop
 endfacet
 facet normal -0.99787 0.0652368 0
  outer loop
   vertex 0.533333 -4.84847e-13 1
   vertex 0.533498 0.00252364 1
   vertex 0.533333 -4.84847e-13 -1
  endloop
 endfacet
 facet normal 0.0551398 0.998479 0
  outer loop
   vertex 0.607263 0.0438995 1
   vertex 0.610039 0.0437462 1
   vertex 0.610039 0.0437462 -1
  endloop
 endfacet
 facet normal 0.126051 0.992024 0
  outer loop
   vertex 0.86253 0.02039 1
   vertex 0.88614 0.01739 1
   vertex 0.88614 0.01739 -1
  endloop
 endfacet
 facet normal 0.121433 0.9926 0
  outer loop
   vertex 0.848921 0.0220549 1
   vertex 0.86253 0.02039 1
   vertex 0.86253 0.02039 -1
  endloop
 endfacet
 facet normal 0.121433 0.9926 0
  outer loop
   vertex 0.848921 0.0220549 1
   vertex 0.86253 0.02039 -1
   vertex 0.848921 0.0220549 -1
  endloop
 endfacet
 facet normal 0.118537 0.99295 0
  outer loop
   vertex 0.848921 0.0220549 1
   vertex 0.848921 0.0220549 -1
   vertex 0.83891 0.02325 -1
  endloop
 endfacet
 facet normal 0.0267102 0.999643 0
  outer loop
   vertex 0.604093 0.0439842 1
   vertex 0.607263 0.0438995 -1
   vertex 0.604093 0.0439842 -1
  endloop
 endfacet
 facet normal 0.0267102 0.999643 0
  outer loop
   vertex 0.604093 0.0439842 1
   vertex 0.607263 0.0438995 1
   vertex 0.607263 0.0438995 -1
  endloop
 endfacet
 facet normal 0.0125875 0.999921 0
  outer loop
   vertex 0.60225 -0.043961 1
   vertex 0.604093 -0.0439842 -1
   vertex 0.60225 -0.043961 -1
  endloop
 endfacet
 facet normal 0.0125875 0.999921 0
  outer loop
   vertex 0.60225 -0.043961 1
   vertex 0.604093 -0.0439842 1
   vertex 0.604093 -0.0439842 -1
  endloop
 endfacet
 facet normal 0.0505955 0.998719 0
  outer loop
   vertex 0.598843 -0.0437884 1
   vertex 0.60225 -0.043961 -1
   vertex 0.598843 -0.0437884 -1
  endloop
 endfacet
 facet normal 0.0505955 0.998719 0
  outer loop
   vertex 0.598843 -0.0437884 1
   vertex 0.60225 -0.043961 1
   vertex 0.60225 -0.043961 -1
  endloop
 endfacet
 facet normal -0.118537 0.99295 0
  outer loop
   vertex 0.83891 -0.02325 1
   vertex 0.848921 -0.0220549 1
   vertex 0.83891 -0.02325 -1
  endloop
 endfacet
 facet normal -0.11453 0.99342 0
  outer loop
   vertex 0.81497 -0.02601 1
   vertex 0.83891 -0.02325 1
   vertex 0.83891 -0.02325 -1
  endloop
 endfacet
 facet normal -0.11453 0.99342 0
  outer loop
   vertex 0.81497 -0.02601 1
   vertex 0.83891 -0.02325 -1
   vertex 0.81497 -0.02601 -1
  endloop
 endfacet
 facet normal 0.0868453 0.996222 0
  outer loop
   vertex 0.596917 -0.0436205 1
   vertex 0.598843 -0.0437884 -1
   vertex 0.596917 -0.0436205 -1
  endloop
 endfacet
 facet normal 0.0868453 0.996222 0
  outer loop
   vertex 0.596917 -0.0436205 1
   vertex 0.598843 -0.0437884 1
   vertex 0.598843 -0.0437884 -1
  endloop
 endfacet
 facet normal 0.122268 0.992497 0
  outer loop
   vertex 0.593282 -0.0431727 1
   vertex 0.596917 -0.0436205 -1
   vertex 0.593282 -0.0431727 -1
  endloop
 endfacet
 facet normal 0.156408 0.987693 0
  outer loop
   vertex 0.593282 -0.0431727 1
   vertex 0.593282 -0.0431727 -1
   vertex 0.591265 -0.0428533 -1
  endloop
 endfacet
 facet normal -0.111121 0.993807 0
  outer loop
   vertex 0.808799 -0.0267 1
   vertex 0.81497 -0.02601 1
   vertex 0.81497 -0.02601 -1
  endloop
 endfacet
 facet normal -0.111121 0.993807 0
  outer loop
   vertex 0.808799 -0.0267 1
   vertex 0.81497 -0.02601 -1
   vertex 0.808799 -0.0267 -1
  endloop
 endfacet
 facet normal -0.108394 0.994108 0
  outer loop
   vertex 0.808799 -0.0267 1
   vertex 0.808799 -0.0267 -1
   vertex 0.79064 -0.02868 -1
  endloop
 endfacet
 facet normal 0.122268 0.992497 0
  outer loop
   vertex 0.593282 -0.0431727 1
   vertex 0.596917 -0.0436205 1
   vertex 0.596917 -0.0436205 -1
  endloop
 endfacet
 facet normal 0.156408 0.987693 0
  outer loop
   vertex 0.591265 -0.0428533 1
   vertex 0.593282 -0.0431727 1
   vertex 0.591265 -0.0428533 -1
  endloop
 endfacet
 facet normal -0.108394 0.994108 0
  outer loop
   vertex 0.79064 -0.02868 1
   vertex 0.808799 -0.0267 1
   vertex 0.79064 -0.02868 -1
  endloop
 endfacet
 facet normal -0.154015 0.988068 0
  outer loop
   vertex 1 -0.001 1
   vertex 1 -0.001 -1
   vertex 0.99166 -0.0023 -1
  endloop
 endfacet
 facet normal 0.189679 0.981846 0
  outer loop
   vertex 0.587493 -0.0421246 1
   vertex 0.591265 -0.0428533 -1
   vertex 0.587493 -0.0421246 -1
  endloop
 endfacet
 facet normal 0.222007 0.975045 0
  outer loop
   vertex 0.587493 -0.0421246 1
   vertex 0.587493 -0.0421246 -1
   vertex 0.58542 -0.0416526 -1
  endloop
 endfacet
 facet normal 0.189679 0.981846 0
  outer loop
   vertex 0.587493 -0.0421246 1
   vertex 0.591265 -0.0428533 1
   vertex 0.591265 -0.0428533 -1
  endloop
 endfacet
 facet normal 0.253453 0.967348 0
  outer loop
   vertex 0.58542 -0.0416526 1
   vertex 0.58542 -0.0416526 -1
   vertex 0.581577 -0.0406457 -1
  endloop
 endfacet
 facet normal 0.222007 0.975045 0
  outer loop
   vertex 0.58542 -0.0416526 1
   vertex 0.587493 -0.0421246 1
   vertex 0.58542 -0.0416526 -1
  endloop
 endfacet
 facet normal -0.103871 0.994591 0
  outer loop
   vertex 0.770848 -0.030747 1
   vertex 0.79064 -0.02868 1
   vertex 0.79064 -0.02868 -1
  endloop
 endfacet
 facet normal -0.103871 0.994591 0
  outer loop
   vertex 0.770848 -0.030747 1
   vertex 0.79064 -0.02868 -1
   vertex 0.770848 -0.030747 -1
  endloop
 endfacet
 facet normal -0.100786 0.994908 0
  outer loop
   vertex 0.770848 -0.030747 1
   vertex 0.770848 -0.030747 -1
   vertex 0.76608 -0.03123 -1
  endloop
 endfacet
 facet normal -0.151061 0.988524 0
  outer loop
   vertex 0.99166 -0.0023 1
   vertex 0.99166 -0.0023 -1
   vertex 0.97674 -0.00458 -1
  endloop
 endfacet
 facet normal 0.284361 0.958717 0
  outer loop
   vertex 0.581577 -0.0406457 1
   vertex 0.581577 -0.0406457 -1
   vertex 0.579485 -0.0400252 -1
  endloop
 endfacet
 facet normal 0.253453 0.967348 0
  outer loop
   vertex 0.581577 -0.0406457 1
   vertex 0.58542 -0.0416526 1
   vertex 0.581577 -0.0406457 -1
  endloop
 endfacet
 facet normal -0.100786 0.994908 0
  outer loop
   vertex 0.76608 -0.03123 1
   vertex 0.770848 -0.030747 1
   vertex 0.76608 -0.03123 -1
  endloop
 endfacet
 facet normal 0.314479 0.949265 0
  outer loop
   vertex 0.579485 -0.0400252 1
   vertex 0.579485 -0.0400252 -1
   vertex 0.575643 -0.0387524 -1
  endloop
 endfacet
 facet normal -0.154015 0.988068 0
  outer loop
   vertex 0.99166 -0.0023 1
   vertex 1 -0.001 1
   vertex 0.99166 -0.0023 -1
  endloop
 endfacet
 facet normal 0.284361 0.958717 0
  outer loop
   vertex 0.579485 -0.0400252 1
   vertex 0.581577 -0.0406457 1
   vertex 0.579485 -0.0400252 -1
  endloop
 endfacet
 facet normal 0.344244 0.93888 0
  outer loop
   vertex 0.575643 -0.0387524 1
   vertex 0.575643 -0.0387524 -1
   vertex 0.573571 -0.0379927 -1
  endloop
 endfacet
 facet normal -0.0970998 0.995275 0
  outer loop
   vertex 0.74148 -0.03363 1
   vertex 0.76608 -0.03123 -1
   vertex 0.74148 -0.03363 -1
  endloop
 endfacet
 facet normal 0.314479 0.949265 0
  outer loop
   vertex 0.575643 -0.0387524 1
   vertex 0.579485 -0.0400252 1
   vertex 0.575643 -0.0387524 -1
  endloop
 endfacet
 facet normal 0.344244 0.93888 0
  outer loop
   vertex 0.573571 -0.0379927 1
   vertex 0.575643 -0.0387524 1
   vertex 0.573571 -0.0379927 -1
  endloop
 endfacet
 facet normal 0.373424 0.927661 0
  outer loop
   vertex 0.569802 -0.0364755 1
   vertex 0.573571 -0.0379927 -1
   vertex 0.569802 -0.0364755 -1
  endloop
 endfacet
 facet normal -0.151061 0.988524 0
  outer loop
   vertex 0.97674 -0.00458 1
   vertex 0.99166 -0.0023 1
   vertex 0.97674 -0.00458 -1
  endloop
 endfacet
 facet normal -0.148327 0.988938 0
  outer loop
   vertex 0.962868 -0.00666061 1
   vertex 0.97674 -0.00458 -1
   vertex 0.962868 -0.00666061 -1
  endloop
 endfacet
 facet normal -0.0970998 0.995275 0
  outer loop
   vertex 0.74148 -0.03363 1
   vertex 0.76608 -0.03123 1
   vertex 0.76608 -0.03123 -1
  endloop
 endfacet
 facet normal -0.0928536 0.99568 0
  outer loop
   vertex 0.731411 -0.034569 1
   vertex 0.74148 -0.03363 1
   vertex 0.74148 -0.03363 -1
  endloop
 endfacet
 facet normal -0.0928536 0.99568 0
  outer loop
   vertex 0.731411 -0.034569 1
   vertex 0.74148 -0.03363 -1
   vertex 0.731411 -0.034569 -1
  endloop
 endfacet
 facet normal -0.0897277 0.995966 0
  outer loop
   vertex 0.731411 -0.034569 1
   vertex 0.731411 -0.034569 -1
   vertex 0.71697 -0.03587 -1
  endloop
 endfacet
 facet normal 0.373424 0.927661 0
  outer loop
   vertex 0.569802 -0.0364755 1
   vertex 0.573571 -0.0379927 1
   vertex 0.573571 -0.0379927 -1
  endloop
 endfacet
 facet normal 0.393922 0.919144 0
  outer loop
   vertex 0.56963 -0.0364018 1
   vertex 0.569802 -0.0364755 1
   vertex 0.569802 -0.0364755 -1
  endloop
 endfacet
 facet normal 0.393922 0.919144 0
  outer loop
   vertex 0.56963 -0.0364018 1
   vertex 0.569802 -0.0364755 -1
   vertex 0.56963 -0.0364018 -1
  endloop
 endfacet
 facet normal -0.0897277 0.995966 0
  outer loop
   vertex 0.71697 -0.03587 1
   vertex 0.731411 -0.034569 1
   vertex 0.71697 -0.03587 -1
  endloop
 endfacet
 facet normal 0.413247 0.910619 0
  outer loop
   vertex 0.565826 -0.0346755 1
   vertex 0.56963 -0.0364018 -1
   vertex 0.565826 -0.0346755 -1
  endloop
 endfacet
 facet normal 0.413247 0.910619 0
  outer loop
   vertex 0.565826 -0.0346755 1
   vertex 0.56963 -0.0364018 1
   vertex 0.56963 -0.0364018 -1
  endloop
 endfacet
 facet normal -0.148327 0.988938 0
  outer loop
   vertex 0.962868 -0.00666061 1
   vertex 0.97674 -0.00458 1
   vertex 0.97674 -0.00458 -1
  endloop
 endfacet
 facet normal -0.14656 0.989202 0
  outer loop
   vertex 0.95781 -0.00741 1
   vertex 0.962868 -0.00666061 -1
   vertex 0.95781 -0.00741 -1
  endloop
 endfacet
 facet normal 0.441158 0.89743 0
  outer loop
   vertex 0.564152 -0.0338526 1
   vertex 0.565826 -0.0346755 1
   vertex 0.565826 -0.0346755 -1
  endloop
 endfacet
 facet normal 0.441158 0.89743 0
  outer loop
   vertex 0.564152 -0.0338526 1
   vertex 0.565826 -0.0346755 -1
   vertex 0.564152 -0.0338526 -1
  endloop
 endfacet
 facet normal -0.084951 0.996385 0
  outer loop
   vertex 0.695743 -0.0376798 1
   vertex 0.71697 -0.03587 -1
   vertex 0.695743 -0.0376798 -1
  endloop
 endfacet
 facet normal 0.467262 0.884119 0
  outer loop
   vertex 0.560805 -0.0320837 1
   vertex 0.564152 -0.0338526 1
   vertex 0.564152 -0.0338526 -1
  endloop
 endfacet
 facet normal 0.467262 0.884119 0
  outer loop
   vertex 0.560805 -0.0320837 1
   vertex 0.564152 -0.0338526 -1
   vertex 0.560805 -0.0320837 -1
  endloop
 endfacet
 facet normal -0.084951 0.996385 0
  outer loop
   vertex 0.695743 -0.0376798 1
   vertex 0.71697 -0.03587 1
   vertex 0.71697 -0.03587 -1
  endloop
 endfacet
 facet normal -0.14656 0.989202 0
  outer loop
   vertex 0.95781 -0.00741 1
   vertex 0.962868 -0.00666061 1
   vertex 0.962868 -0.00666061 -1
  endloop
 endfacet
 facet normal -0.143508 0.989649 0
  outer loop
   vertex 0.93457 -0.01078 1
   vertex 0.95781 -0.00741 -1
   vertex 0.93457 -0.01078 -1
  endloop
 endfacet
 facet normal 0.493312 0.869853 0
  outer loop
   vertex 0.559223 -0.0311865 1
   vertex 0.560805 -0.0320837 1
   vertex 0.560805 -0.0320837 -1
  endloop
 endfacet
 facet normal 0.493312 0.869853 0
  outer loop
   vertex 0.559223 -0.0311865 1
   vertex 0.560805 -0.0320837 -1
   vertex 0.559223 -0.0311865 -1
  endloop
 endfacet
 facet normal -0.0817288 0.996655 0
  outer loop
   vertex 0.69257 -0.03794 1
   vertex 0.695743 -0.0376798 -1
   vertex 0.69257 -0.03794 -1
  endloop
 endfacet
 facet normal -0.0817288 0.996655 0
  outer loop
   vertex 0.69257 -0.03794 1
   vertex 0.695743 -0.0376798 1
   vertex 0.695743 -0.0376798 -1
  endloop
 endfacet
 facet normal -0.0781993 0.996938 0
  outer loop
   vertex 0.69257 -0.03794 1
   vertex 0.69257 -0.03794 -1
   vertex 0.66822 -0.03985 -1
  endloop
 endfacet
 facet normal 0.520166 0.854065 0
  outer loop
   vertex 0.555961 -0.0291998 1
   vertex 0.559223 -0.0311865 1
   vertex 0.559223 -0.0311865 -1
  endloop
 endfacet
 facet normal 0.520166 0.854065 0
  outer loop
   vertex 0.555961 -0.0291998 1
   vertex 0.559223 -0.0311865 -1
   vertex 0.555961 -0.0291998 -1
  endloop
 endfacet
 facet normal 0.546253 0.83762 0
  outer loop
   vertex 0.555961 -0.0291998 1
   vertex 0.555961 -0.0291998 -1
   vertex 0.554621 -0.0283259 -1
  endloop
 endfacet
 facet normal -0.143508 0.989649 0
  outer loop
   vertex 0.93457 -0.01078 1
   vertex 0.95781 -0.00741 1
   vertex 0.95781 -0.00741 -1
  endloop
 endfacet
 facet normal -0.140065 0.990142 0
  outer loop
   vertex 0.925694 -0.0120356 1
   vertex 0.93457 -0.01078 -1
   vertex 0.925694 -0.0120356 -1
  endloop
 endfacet
 facet normal -0.0781993 0.996938 0
  outer loop
   vertex 0.66822 -0.03985 1
   vertex 0.69257 -0.03794 1
   vertex 0.66822 -0.03985 -1
  endloop
 endfacet
 facet normal 0.546253 0.83762 0
  outer loop
   vertex 0.554621 -0.0283259 1
   vertex 0.555961 -0.0291998 1
   vertex 0.554621 -0.0283259 -1
  endloop
 endfacet
 facet normal 0.572034 0.82023 0
  outer loop
   vertex 0.55162 -0.026233 1
   vertex 0.554621 -0.0283259 -1
   vertex 0.55162 -0.026233 -1
  endloop
 endfacet
 facet normal 0.572034 0.82023 0
  outer loop
   vertex 0.55162 -0.026233 1
   vertex 0.554621 -0.0283259 1
   vertex 0.554621 -0.0283259 -1
  endloop
 endfacet
 facet normal 0.598213 0.801337 0
  outer loop
   vertex 0.550399 -0.0253215 1
   vertex 0.55162 -0.026233 1
   vertex 0.55162 -0.026233 -1
  endloop
 endfacet
 facet normal 0.598213 0.801337 0
  outer loop
   vertex 0.550399 -0.0253215 1
   vertex 0.55162 -0.026233 -1
   vertex 0.550399 -0.0253215 -1
  endloop
 endfacet
 facet normal 0.624415 0.781093 0
  outer loop
   vertex 0.550399 -0.0253215 1
   vertex 0.550399 -0.0253215 -1
   vertex 0.547693 -0.0231583 -1
  endloop
 endfacet
 facet normal -0.0735112 0.997294 0
  outer loop
   vertex 0.656645 -0.0407032 1
   vertex 0.66822 -0.03985 -1
   vertex 0.656645 -0.0407032 -1
  endloop
 endfacet
 facet normal 0.624415 0.781093 0
  outer loop
   vertex 0.547693 -0.0231583 1
   vertex 0.550399 -0.0253215 1
   vertex 0.547693 -0.0231583 -1
  endloop
 endfacet
 facet normal -0.140065 0.990142 0
  outer loop
   vertex 0.925694 -0.0120356 1
   vertex 0.93457 -0.01078 1
   vertex 0.93457 -0.01078 -1
  endloop
 endfacet
 facet normal -0.13725 0.990536 0
  outer loop
   vertex 0.91029 -0.01417 1
   vertex 0.925694 -0.0120356 -1
   vertex 0.91029 -0.01417 -1
  endloop
 endfacet
 facet normal 0.650291 0.759685 0
  outer loop
   vertex 0.546602 -0.0222244 1
   vertex 0.547693 -0.0231583 -1
   vertex 0.546602 -0.0222244 -1
  endloop
 endfacet
 facet normal 0.650291 0.759685 0
  outer loop
   vertex 0.546602 -0.0222244 1
   vertex 0.547693 -0.0231583 1
   vertex 0.547693 -0.0231583 -1
  endloop
 endfacet
 facet normal -0.0735112 0.997294 0
  outer loop
   vertex 0.656645 -0.0407032 1
   vertex 0.66822 -0.03985 1
   vertex 0.66822 -0.03985 -1
  endloop
 endfacet
 facet normal 0.676717 0.736243 0
  outer loop
   vertex 0.54421 -0.0200258 1
   vertex 0.546602 -0.0222244 1
   vertex 0.546602 -0.0222244 -1
  endloop
 endfacet
 facet normal 0.676717 0.736243 0
  outer loop
   vertex 0.54421 -0.0200258 1
   vertex 0.546602 -0.0222244 -1
   vertex 0.54421 -0.0200258 -1
  endloop
 endfacet
 facet normal -0.0700819 0.997541 0
  outer loop
   vertex 0.64388 -0.0416 1
   vertex 0.656645 -0.0407032 -1
   vertex 0.64388 -0.0416 -1
  endloop
 endfacet
 facet normal -0.065156 0.997875 0
  outer loop
   vertex 0.64388 -0.0416 1
   vertex 0.64388 -0.0416 -1
   vertex 0.622791 -0.042977 -1
  endloop
 endfacet
 facet normal -0.0700819 0.997541 0
  outer loop
   vertex 0.64388 -0.0416 1
   vertex 0.656645 -0.0407032 1
   vertex 0.656645 -0.0407032 -1
  endloop
 endfacet
 facet normal 0.702984 0.711206 0
  outer loop
   vertex 0.543257 -0.0190838 1
   vertex 0.54421 -0.0200258 1
   vertex 0.54421 -0.0200258 -1
  endloop
 endfacet
 facet normal 0.702984 0.711206 0
  outer loop
   vertex 0.543257 -0.0190838 1
   vertex 0.54421 -0.0200258 -1
   vertex 0.543257 -0.0190838 -1
  endloop
 endfacet
 facet normal -0.13725 0.990536 0
  outer loop
   vertex 0.91029 -0.01417 1
   vertex 0.925694 -0.0120356 1
   vertex 0.925694 -0.0120356 -1
  endloop
 endfacet
 facet normal -0.132417 0.991194 0
  outer loop
   vertex 0.888092 -0.0171355 1
   vertex 0.91029 -0.01417 -1
   vertex 0.888092 -0.0171355 -1
  endloop
 endfacet
 facet normal 0.729046 0.684464 0
  outer loop
   vertex 0.54119 -0.0168822 1
   vertex 0.543257 -0.0190838 -1
   vertex 0.54119 -0.0168822 -1
  endloop
 endfacet
 facet normal 0.755314 0.655363 0
  outer loop
   vertex 0.54119 -0.0168822 1
   vertex 0.54119 -0.0168822 -1
   vertex 0.540377 -0.0159452 -1
  endloop
 endfacet
 facet normal -0.065156 0.997875 0
  outer loop
   vertex 0.622791 -0.042977 1
   vertex 0.64388 -0.0416 1
   vertex 0.622791 -0.042977 -1
  endloop
 endfacet
 facet normal 0.729046 0.684464 0
  outer loop
   vertex 0.54119 -0.0168822 1
   vertex 0.543257 -0.0190838 1
   vertex 0.543257 -0.0190838 -1
  endloop
 endfacet
 facet normal 0.755314 0.655363 0
  outer loop
   vertex 0.540377 -0.0159452 1
   vertex 0.54119 -0.0168822 1
   vertex 0.540377 -0.0159452 -1
  endloop
 endfacet
 facet normal 0.78118 0.624306 0
  outer loop
   vertex 0.538638 -0.0137692 1
   vertex 0.540377 -0.0159452 -1
   vertex 0.538638 -0.0137692 -1
  endloop
 endfacet
 facet normal 0.78118 0.624306 0
  outer loop
   vertex 0.538638 -0.0137692 1
   vertex 0.540377 -0.0159452 1
   vertex 0.540377 -0.0159452 -1
  endloop
 endfacet
 facet normal 0.806863 0.590738 0
  outer loop
   vertex 0.537964 -0.0128486 1
   vertex 0.538638 -0.0137692 -1
   vertex 0.537964 -0.0128486 -1
  endloop
 endfacet
 facet normal -0.132417 0.991194 0
  outer loop
   vertex 0.888092 -0.0171355 1
   vertex 0.91029 -0.01417 1
   vertex 0.91029 -0.01417 -1
  endloop
 endfacet
 facet normal -0.129285 0.991608 0
  outer loop
   vertex 0.88614 -0.01739 1
   vertex 0.888092 -0.0171355 -1
   vertex 0.88614 -0.01739 -1
  endloop
 endfacet
 facet normal -0.0617529 0.998091 0
  outer loop
   vertex 0.61951 -0.04318 1
   vertex 0.622791 -0.042977 -1
   vertex 0.61951 -0.04318 -1
  endloop
 endfacet
 facet normal 0.806863 0.590738 0
  outer loop
   vertex 0.537964 -0.0128486 1
   vertex 0.538638 -0.0137692 1
   vertex 0.538638 -0.0137692 -1
  endloop
 endfacet
 facet normal -0.0596759 0.998218 0
  outer loop
   vertex 0.61951 -0.04318 1
   vertex 0.61951 -0.04318 -1
   vertex 0.610039 -0.0437462 -1
  endloop
 endfacet
 facet normal 0.823679 0.567056 0
  outer loop
   vertex 0.537189 -0.0117229 1
   vertex 0.537964 -0.0128486 -1
   vertex 0.537189 -0.0117229 -1
  endloop
 endfacet
 facet normal 0.848535 0.52914 0
  outer loop
   vertex 0.537189 -0.0117229 1
   vertex 0.537189 -0.0117229 -1
   vertex 0.536007 -0.0098274 -1
  endloop
 endfacet
 facet normal 0.823679 0.567056 0
  outer loop
   vertex 0.537189 -0.0117229 1
   vertex 0.537964 -0.0128486 1
   vertex 0.537964 -0.0128486 -1
  endloop
 endfacet
 facet normal 0.848535 0.52914 0
  outer loop
   vertex 0.536007 -0.0098274 1
   vertex 0.537189 -0.0117229 1
   vertex 0.536007 -0.0098274 -1
  endloop
 endfacet
 facet normal 0.866948 0.498399 0
  outer loop
   vertex 0.535932 -0.00969697 1
   vertex 0.536007 -0.0098274 1
   vertex 0.536007 -0.0098274 -1
  endloop
 endfacet
 facet normal 0.866948 0.498399 0
  outer loop
   vertex 0.535932 -0.00969697 1
   vertex 0.536007 -0.0098274 -1
   vertex 0.535932 -0.00969697 -1
  endloop
 endfacet
 facet normal -0.0617529 0.998091 0
  outer loop
   vertex 0.61951 -0.04318 1
   vertex 0.622791 -0.042977 1
   vertex 0.622791 -0.042977 -1
  endloop
 endfacet
 facet normal 0.895187 0.445691 0
  outer loop
   vertex 0.534866 -0.00755581 1
   vertex 0.535932 -0.00969697 1
   vertex 0.535932 -0.00969697 -1
  endloop
 endfacet
 facet normal 0.895187 0.445691 0
  outer loop
   vertex 0.534866 -0.00755581 1
   vertex 0.535932 -0.00969697 -1
   vertex 0.534866 -0.00755581 -1
  endloop
 endfacet
 facet normal -0.0596759 0.998218 0
  outer loop
   vertex 0.610039 -0.0437462 1
   vertex 0.61951 -0.04318 1
   vertex 0.610039 -0.0437462 -1
  endloop
 endfacet
 facet normal 0.921756 0.387771 0
  outer loop
   vertex 0.534815 -0.00743467 1
   vertex 0.534866 -0.00755581 1
   vertex 0.534866 -0.00755581 -1
  endloop
 endfacet
 facet normal 0.921756 0.387771 0
  outer loop
   vertex 0.534815 -0.00743467 1
   vertex 0.534866 -0.00755581 -1
   vertex 0.534815 -0.00743467 -1
  endloop
 endfacet
 facet normal -0.129285 0.991608 0
  outer loop
   vertex 0.88614 -0.01739 1
   vertex 0.888092 -0.0171355 1
   vertex 0.888092 -0.0171355 -1
  endloop
 endfacet
 facet normal -0.126051 0.992024 0
  outer loop
   vertex 0.86253 -0.02039 1
   vertex 0.88614 -0.01739 -1
   vertex 0.86253 -0.02039 -1
  endloop
 endfacet
 facet normal 0.945427 0.325835 0
  outer loop
   vertex 0.534039 -0.00518309 1
   vertex 0.534815 -0.00743467 1
   vertex 0.534815 -0.00743467 -1
  endloop
 endfacet
 facet normal 0.945427 0.325835 0
  outer loop
   vertex 0.534039 -0.00518309 1
   vertex 0.534815 -0.00743467 -1
   vertex 0.534039 -0.00518309 -1
  endloop
 endfacet
 facet normal 0.964678 0.263433 0
  outer loop
   vertex 0.533996 -0.0050255 1
   vertex 0.534039 -0.00518309 1
   vertex 0.534039 -0.00518309 -1
  endloop
 endfacet
 facet normal 0.964678 0.263433 0
  outer loop
   vertex 0.533996 -0.0050255 1
   vertex 0.534039 -0.00518309 -1
   vertex 0.533996 -0.0050255 -1
  endloop
 endfacet
 facet normal 0.980368 0.197176 0
  outer loop
   vertex 0.533509 -0.00260426 1
   vertex 0.533996 -0.0050255 1
   vertex 0.533996 -0.0050255 -1
  endloop
 endfacet
 facet normal 0.980368 0.197176 0
  outer loop
   vertex 0.533509 -0.00260426 1
   vertex 0.533996 -0.0050255 -1
   vertex 0.533509 -0.00260426 -1
  endloop
 endfacet
 facet normal 0.990775 0.135514 0
  outer loop
   vertex 0.533498 -0.00252364 1
   vertex 0.533509 -0.00260426 1
   vertex 0.533509 -0.00260426 -1
  endloop
 endfacet
 facet normal 0.990775 0.135514 0
  outer loop
   vertex 0.533498 -0.00252364 1
   vertex 0.533509 -0.00260426 -1
   vertex 0.533498 -0.00252364 -1
  endloop
 endfacet
 facet normal -0.0551398 0.998479 0
  outer loop
   vertex 0.607263 -0.0438995 1
   vertex 0.610039 -0.0437462 -1
   vertex 0.607263 -0.0438995 -1
  endloop
 endfacet
 facet normal 0.99787 0.0652368 0
  outer loop
   vertex 0.533333 -1.73472e-18 1
   vertex 0.533498 -0.00252364 1
   vertex 0.533498 -0.00252364 -1
  endloop
 endfacet
 facet normal 0.99787 0.0652368 0
  outer loop
   vertex 0.533333 -1.73472e-18 1
   vertex 0.533498 -0.00252364 -1
   vertex 0.533333 -1.73472e-18 -1
  endloop
 endfacet
 facet normal -0.126051 0.992024 0
  outer loop
   vertex 0.86253 -0.02039 1
   vertex 0.88614 -0.01739 1
   vertex 0.88614 -0.01739 -1
  endloop
 endfacet
 facet normal -0.121433 0.9926 0
  outer loop
   vertex 0.848921 -0.0220549 1
   vertex 0.86253 -0.02039 1
   vertex 0.86253 -0.02039 -1
  endloop
 endfacet
 facet normal -0.121433 0.9926 0
  outer loop
   vertex 0.848921 -0.0220549 1
   vertex 0.86253 -0.02039 -1
   vertex 0.848921 -0.0220549 -1
  endloop
 endfacet
 facet normal -0.118537 0.99295 0
  outer loop
   vertex 0.848921 -0.0220549 1
   vertex 0.848921 -0.0220549 -1
   vertex 0.83891 -0.02325 -1
  endloop
 endfacet
 facet normal -0.0551398 0.998479 0
  outer loop
   vertex 0.607263 -0.0438995 1
   vertex 0.610039 -0.0437462 1
   vertex 0.610039 -0.0437462 -1
  endloop
 endfacet
 facet normal -0.0267102 0.999643 0
  outer loop
   vertex 0.604093 -0.0439842 1
   vertex 0.607263 -0.0438995 -1
   vertex 0.604093 -0.0439842 -1
  endloop
 endfacet
 facet normal -0.0267102 0.999643 0
  outer loop
   vertex 0.604093 -0.0439842 1
   vertex 0.607263 -0.0438995 1
   vertex 0.607263 -0.0438995 -1
  endloop
 endfacet
 facet normal -1 0 -0
  outer loop
   vertex 1 0.001 1
   vertex 1 0.001 -1
   vertex 1 -0.001 -1
  endloop
 endfacet
 facet normal -1 0 0
  outer loop
   vertex 1 -0.001 1
   vertex 1 0.001 1
   vertex 1 -0.001 -1
  endloop
 endfacet
endsolid zone0
